<svg width="216" height="252" viewBox="0 0 216 252" fill="none" xmlns="http://www.w3.org/2000/svg">
<g clip-path="url(#clip0_30_254)">
<path d="M214.641 234.717C217.208 238.051 209.885 244.081 198.338 245.594C164.618 250.013 112.485 253.065 70.9293 250.872C47.6567 249.645 18.3113 247.961 12.2213 240.08C11.3551 238.959 10.9876 234.746 14.0201 234.432C34.1574 232.345 47.4018 234.016 91.1315 233.17C154.099 231.952 212.574 232.033 214.641 234.717Z" fill="#DFE4EF"/>
<path opacity="0.5" d="M91.66 238.355C91.6995 240.106 77.0693 241.925 58.9828 242.418C40.8962 242.912 18.5246 240.247 18.4852 238.497C18.4458 236.746 40.7535 236.572 58.84 236.079C76.9266 235.585 91.6206 236.604 91.66 238.355ZM196.873 238.261C196.917 240.012 176.594 242.41 162.684 242.755C148.775 243.099 140.628 239.552 140.584 237.802C140.541 236.051 157.7 236.061 171.609 235.716C185.519 235.371 196.83 236.511 196.873 238.261Z" fill="#B9C1E1"/>
<path d="M53.8698 38.5994C53.6975 44.124 54.0724 52.0244 53.8061 59.2983L53.8052 59.3279C53.8052 59.3279 53.8052 59.3279 53.815 59.3282C53.8351 59.3188 53.984 59.2844 54.2325 59.2234C54.9 58.3727 57.35 56.9703 60.4453 55.7439C63.6105 54.4905 66.4223 53.8232 67.4312 54.0402C67.481 54.0221 67.5214 53.994 67.5715 53.9661C67.5718 53.9563 67.5623 53.9462 67.5428 53.9358C67.5237 53.9157 67.4954 53.8759 67.4572 53.8355C66.3427 52.5779 57.3512 42.3866 53.8698 38.5994Z" fill="#E06020"/>
<path d="M56.1603 41.1195C56.0363 41.3929 55.8069 41.6746 55.3637 41.85C54.7634 42.0942 54.2007 41.9612 53.824 41.8059C53.8272 40.6681 53.8387 39.5911 53.8731 38.6C54.4737 39.2509 55.2633 40.1267 56.1603 41.1195Z" fill="#C6501C"/>
<path d="M54.0017 40.4384C54.0017 40.4384 54.5402 40.8519 54.8997 40.5371C55.2594 40.2224 54.9661 39.6308 54.9661 39.6308C54.9661 39.6308 55.5802 39.5333 55.6471 38.9232C55.7145 38.3135 54.9035 38.4129 54.9035 38.4129C54.9035 38.4129 55.0251 37.9295 54.7087 37.8104C54.3923 37.6915 54.0825 38.025 53.9601 38.2298C53.9601 38.2298 53.4064 37.9798 53.144 38.2384C52.8814 38.4974 52.893 39.0399 53.1161 39.2875C53.1161 39.2875 52.5494 40.0476 53.0612 40.4675C53.5729 40.8875 54.0017 40.4384 54.0017 40.4384Z" fill="#E06020"/>
<path d="M53.4089 40.02C53.4089 40.02 53.7606 40.4677 54.1161 40.2821C54.4718 40.0964 54.3549 39.552 54.3549 39.552C54.3549 39.552 54.8721 39.5958 55.051 39.1088C55.2301 38.6221 54.5529 38.5403 54.5529 38.5403C54.5529 38.5403 54.7499 38.1682 54.518 38.0068C54.286 37.8455 53.967 38.0564 53.8259 38.1999C53.8259 38.1999 53.4287 37.883 53.163 38.0424C52.8976 38.2018 52.7962 38.6491 52.9263 38.8973C52.9263 38.8973 52.3122 39.4063 52.641 39.8542C52.9698 40.302 53.4089 40.02 53.4089 40.02Z" fill="#C6501C"/>
<path d="M57.4659 42.5796C57.4177 42.6516 57.3512 42.7074 57.2684 42.7519C56.9808 42.9069 56.6222 42.7959 56.466 42.5106C56.3171 42.2283 56.4156 41.8834 56.6959 41.7255C56.9492 42.0017 57.2066 42.2881 57.4659 42.5796ZM56.1237 44.5925C55.8273 44.0411 55.1367 43.8326 54.5813 44.1268C54.0256 44.4209 53.8156 45.1063 54.1119 45.6578C54.4083 46.2092 55.0989 46.4177 55.6545 46.1234C56.2101 45.8294 56.4201 45.1439 56.1237 44.5925ZM56.3214 47.5576C56.0319 47.711 55.9223 48.0683 56.0768 48.3559C56.2314 48.6433 56.5914 48.7522 56.881 48.5987C57.1707 48.4453 57.2802 48.0879 57.1257 47.8004C56.9711 47.513 56.6112 47.4043 56.3214 47.5576ZM54.5354 50.9225C54.3369 51.048 54.115 51.1006 53.8982 51.0923C53.896 50.3344 53.8886 49.5784 53.8822 48.8397C54.282 48.8168 54.6764 49.0018 54.9051 49.3643C55.2306 49.8942 55.0674 50.5942 54.5354 50.9225ZM56.196 52.3172C55.9064 52.4706 55.7968 52.8279 55.9514 53.1155C56.106 53.403 56.466 53.5117 56.7557 53.3583C57.0453 53.2049 57.1549 52.8475 57.0003 52.56C56.8457 52.2725 56.4858 52.1638 56.196 52.3172ZM54.7432 56.5876C54.4691 56.7314 54.1602 56.7595 53.8813 56.6699C53.8933 55.9475 53.8981 55.2221 53.905 54.5016C54.4062 54.3621 54.9559 54.5798 55.2119 55.0549C55.5058 55.6093 55.2945 56.2929 54.7432 56.5876ZM61.2555 46.833C61.2125 46.8735 61.1655 46.9039 61.1112 46.9312C60.8156 47.0658 60.459 46.9305 60.3284 46.6351C60.2183 46.3905 60.286 46.1166 60.4754 45.9534C60.7368 46.25 60.9961 46.5414 61.2555 46.833ZM60.5993 48.2148C60.3029 47.6633 59.6123 47.4549 59.0568 47.7491C58.5012 48.0432 58.2912 48.7286 58.5875 49.28C58.8839 49.8314 59.5745 50.0399 60.1301 49.7457C60.6857 49.4515 60.8957 48.7661 60.5993 48.2148ZM60.5732 51.1207C60.2836 51.2741 60.1739 51.6314 60.3285 51.919C60.4831 52.2064 60.8432 52.3152 61.133 52.1617C61.4225 52.0084 61.5321 51.651 61.3775 51.3635C61.2228 51.076 60.8629 50.9673 60.5732 51.1207ZM65.33 51.4266L65.332 51.4316C65.3694 51.8639 65.145 52.2939 64.7358 52.5147C64.1844 52.8094 63.4905 52.6017 63.1966 52.0473C62.8976 51.495 63.1088 50.8114 63.6654 50.5147C63.9109 50.3881 64.1777 50.3589 64.4281 50.4069L64.4301 50.4119C64.7457 50.7695 65.0501 51.1137 65.33 51.4266ZM60.9242 54.2079C60.6279 53.6565 59.9372 53.448 59.3817 53.7423C58.8263 54.0363 58.6161 54.7218 58.9125 55.2732C59.2088 55.8246 59.8995 56.0331 60.4551 55.7389C61.0105 55.4447 61.2206 54.7593 60.9242 54.2079Z" fill="#C6501C"/>
<path d="M53.806 59.2983C53.8057 59.3083 53.8054 59.3179 53.8149 59.3283C53.814 59.3574 53.8229 59.3871 53.8321 59.4069C53.8694 59.4766 53.9464 59.5378 54.0637 59.5705C54.0667 59.4728 54.1295 59.3574 54.2323 59.2234C54.8998 58.3727 57.3498 56.9703 60.4451 55.7439C63.6103 54.4905 66.4221 53.8232 67.431 54.0402C67.4799 54.0515 67.5289 54.0628 67.5677 54.0836C67.5886 54.045 67.6146 53.9171 67.4571 53.8355C66.8095 53.4142 63.7506 54.1033 60.2163 55.4922C56.5821 56.9271 53.8282 58.5845 53.806 59.2983Z" fill="#C6501C"/>
<path d="M40.054 177.693L29.5845 180.901L31.387 187.616L42.1194 185.043L40.054 177.693Z" fill="#FAB19E"/>
<path d="M25.117 180.753C25.117 180.753 23.5117 181.023 23.2296 181.963C22.9474 182.904 26.0921 198.624 29.299 202.79L31.1224 202.552C31.1224 202.552 28.8952 181.407 25.117 180.753Z" fill="#28264A"/>
<path d="M34.4591 179.095C34.5136 179.134 35.6464 184.693 35.3116 184.985C34.9766 185.276 34.3956 186.002 34.5098 186.218C34.6238 186.434 37.247 186.367 37.1536 186.753C37.06 187.139 33.5797 188.535 33.5573 188.776C33.5349 189.017 32.0268 197.884 32.0268 197.884C32.0268 197.884 33.7034 200.027 32.7031 201.526C31.7027 203.026 30.3341 202.782 30.3341 202.782C30.3341 202.782 23.8167 187.95 24.7876 181.014C25.0141 179.394 33.3541 178.311 34.4591 179.095Z" fill="#FFD600"/>
<path d="M34.0373 189.543C34.0373 189.543 32.6683 189.023 32.4285 189.145C32.1887 189.267 32.2651 189.869 32.2651 189.869C32.2651 189.869 34.0145 190.155 34.041 190.073C34.0677 189.992 34.3295 189.649 34.0373 189.543ZM33.5664 192.417C33.5664 192.417 32.1974 191.897 31.9575 192.019C31.7177 192.141 31.7942 192.742 31.7942 192.742C31.7942 192.742 33.5436 193.029 33.5701 192.947C33.5968 192.865 33.8585 192.522 33.5664 192.417ZM33.2677 194.668C33.2677 194.668 31.8987 194.149 31.6588 194.271C31.419 194.393 31.4955 194.994 31.4955 194.994C31.4955 194.994 33.2449 195.28 33.2714 195.199C33.298 195.117 33.5598 194.774 33.2677 194.668Z" fill="#B9C1E1"/>
<path d="M70.9209 172.656L63.0183 180.235L67.6524 185.419L76.0756 178.288L70.9209 172.656Z" fill="#FAB19E"/>
<path d="M58.9632 182.116C58.9632 182.116 57.6513 183.079 57.8231 184.046C57.9949 185.013 67.8828 197.632 72.6221 199.906L74.1432 198.873C74.1432 198.873 62.6309 180.998 58.9632 182.116Z" fill="#28264A"/>
<path d="M66.5573 176.427C66.6234 176.437 70.1387 180.891 69.9709 181.302C69.8029 181.712 69.6115 182.623 69.8105 182.764C70.0096 182.905 72.3216 181.664 72.4119 182.051C72.5021 182.437 70.0239 185.252 70.1125 185.477C70.201 185.702 72.8483 194.298 72.8483 194.298C72.8483 194.298 75.3099 195.456 75.0923 197.245C74.8745 199.034 73.543 199.434 73.543 199.434C73.543 199.434 61.0435 189.126 58.7863 182.496C58.2592 180.948 65.2174 176.225 66.5573 176.427Z" fill="#FFD600"/>
<path d="M70.8865 185.945C70.8865 185.945 69.4301 186.098 69.271 186.315C69.1118 186.532 69.4509 187.034 69.4509 187.034C69.4509 187.034 71.1419 186.502 71.1288 186.417C71.1156 186.332 71.1949 185.908 70.8865 185.945ZM71.7602 188.723C71.7602 188.723 70.3038 188.876 70.1446 189.093C69.9855 189.31 70.3245 189.812 70.3245 189.812C70.3245 189.812 72.0155 189.28 72.0024 189.195C71.9894 189.11 72.0685 188.686 71.7602 188.723ZM72.5078 190.868C72.5078 190.868 71.0514 191.021 70.8922 191.238C70.7331 191.454 71.0721 191.957 71.0721 191.957C71.0721 191.957 72.7631 191.425 72.75 191.34C72.7369 191.255 72.8161 190.831 72.5078 190.868Z" fill="#B9C1E1"/>
<path d="M78.3255 120.655C89.4841 132.303 104.827 151.024 103.847 157.672C102.053 169.853 74.333 181.687 74.333 181.687C67.16 180.311 67.9971 172.844 67.9971 172.844L85.5048 155.406C85.5048 155.406 56.9394 138.028 53.6112 128.068C53.2515 126.991 52.9663 125.987 52.7476 125.049L78.3255 120.655Z" fill="#E06020"/>
<path d="M52.7478 125.042C52.9661 125.992 53.2485 126.993 53.608 128.072C56.9329 138.034 85.5089 155.403 85.5089 155.403L67.9987 172.849C67.9987 172.849 67.1643 180.307 74.3275 181.681C74.3275 181.681 76.3045 180.833 79.2442 179.37C81.5164 174.659 81.003 166.045 81.003 164.838C81.003 163.4 85.1494 160.614 86.0096 158.971C86.8825 157.328 92.4667 155.89 93.8147 154.157C95.1627 152.424 88.3203 155.223 87.4603 154.863C86.5874 154.517 88.4231 154.157 89.3859 153.092C90.3487 152.039 87.4603 153.195 85.9198 153.092C84.3793 153.002 76.7344 143.418 75.7844 141.968C74.8472 140.53 73.352 129.51 74.1351 128.213C74.7384 127.224 80.5281 126.364 83.2882 126.005C81.5808 124.118 79.9119 122.308 78.3201 120.652L52.7478 125.042Z" fill="#D3581E"/>
<path d="M61.7606 167.812C61.7606 167.812 45.1345 139.746 46.4534 129.327C46.7815 126.735 47.3033 124.67 47.9606 123.002L71.1862 123.024L71.0133 137.548C76.1659 153.126 82.0601 170.044 78.1947 175.758C71.2962 185.957 39.4524 186.711 39.4524 186.711C33.5846 182.362 36.6777 177.606 36.6777 177.606L61.7606 167.812Z" fill="#E06020"/>
<path d="M39.4523 186.713C39.4523 186.713 41.8529 186.649 45.473 186.366C43.188 184.62 40.7746 181.912 42.1225 178.908C44.446 173.709 69.5431 170.666 71.9694 169.511C74.3828 168.343 67.5148 167.778 65.9358 166.918C64.344 166.07 66.9371 166.186 68.0155 165.904C69.1066 165.608 64.344 164.466 63.471 163.015C62.6109 161.564 50.0431 134.568 50.6208 132.501C51.1985 130.434 61.5968 130.524 64.2028 130.806C66.796 131.101 68.0156 140.922 68.0156 140.922L74.5626 148.368C73.4329 144.786 72.2005 141.128 71.0195 137.546L71.1864 123.027L47.9662 123.005C47.2986 124.673 46.7852 126.74 46.4515 129.333C45.1292 139.745 61.7638 167.816 61.7638 167.816L36.6796 177.611C36.6794 177.611 33.5856 182.361 39.4523 186.713Z" fill="#D3581E"/>
<path d="M70.4027 121.494L70.3342 136.658C70.3342 136.658 73.8083 148.234 74.5625 148.368C75.3167 148.501 71.4174 136.586 71.4174 136.586L72.4968 121.494L70.4027 121.494Z" fill="#C6501C"/>
<path d="M43.7378 93.7249C43.7378 93.7249 33.5801 101.969 33.3838 103.036C33.1876 104.103 33.4175 106.352 34.6114 107.859C35.8052 109.365 39.3315 109.186 39.3315 109.186L49.5234 102.327L43.7378 93.7249Z" fill="#FAB19E"/>
<path d="M39.6924 97.0797C40.1448 98.94 41.5667 103.473 44.8657 105.464L49.5258 102.331L43.7358 93.7223C43.736 93.7223 41.8479 95.2548 39.6924 97.0797Z" fill="#EBA090"/>
<path d="M10.5506 98.9998C10.5506 98.9998 34.5011 100.109 36.6743 100.638C38.8476 101.167 41.3682 101.737 41.5852 103.603C41.8623 105.985 40.5606 108.378 39.0012 108.984C35.8791 110.197 8.92261 103.515 8.92261 103.515L10.5506 98.9998Z" fill="#FAB19E"/>
<path d="M35.9716 100.815C35.6871 100.745 36.3506 103.473 36.5737 102.891C36.7969 102.309 36.088 100.844 35.9716 100.815ZM36.293 101.001C36.2484 101.023 38.8707 104.292 38.909 103.82C38.9472 103.348 36.742 100.778 36.293 101.001Z" fill="#EBA090"/>
<path d="M5.30289 95.0555C4.98789 95.2508 4.97269 95.5847 5.22819 95.9431C5.77239 96.7066 6.39049 97.4107 6.99099 98.1695C5.15849 97.953 3.18129 97.7585 1.34889 97.542C1.27359 97.7697 1.39699 97.9957 1.54599 98.1251C1.69499 98.2544 1.88259 98.3291 2.06729 98.3984C2.79129 98.67 3.53239 98.8957 4.28479 99.0739C2.99199 99.088 2.06369 99.0676 0.84939 99.1311C0.82769 99.3168 0.92749 99.5752 1.08389 99.6776C1.24039 99.7801 1.57939 99.8537 1.76229 99.8929C2.59329 100.071 3.27279 100.216 4.10369 100.395C3.20789 100.465 2.27869 100.634 1.38289 100.704C1.33329 100.84 1.43799 101.076 1.54929 101.168C1.66079 101.261 1.80269 101.311 1.94479 101.339C2.66639 101.48 3.62829 101.568 4.20929 101.658C3.61319 101.765 3.00659 101.938 2.41059 102.045C2.43579 102.614 3.14469 102.422 3.59719 102.508C5.47559 102.866 7.44559 103.25 9.32409 103.608C9.32409 103.608 10.7429 103.874 11.8291 103.985C11.8356 103.924 12.5272 99.6689 12.6119 99.3145C12.0913 99.23 10.9958 99.0304 10.9958 99.0304C9.67789 96.9045 8.35389 96.9995 5.30289 95.0555Z" fill="#FAB19E"/>
<path d="M4.8102 99.1062C4.8062 99.152 4.5908 99.1705 4.329 99.1477C4.0672 99.1248 3.8583 99.0692 3.8622 99.0234C3.8662 98.9776 4.0816 98.9591 4.3434 98.9819C4.6052 99.0048 4.8142 99.0604 4.8102 99.1062ZM4.7713 100.463C4.7673 100.509 4.5519 100.527 4.2901 100.504C4.0283 100.481 3.8194 100.426 3.8233 100.38C3.8273 100.334 4.0427 100.316 4.3045 100.338C4.5663 100.361 4.7753 100.417 4.7713 100.463ZM4.8409 101.734C4.8369 101.779 4.6215 101.798 4.3597 101.775C4.0979 101.752 3.8889 101.697 3.8929 101.651C3.8969 101.605 4.1123 101.586 4.3741 101.609C4.6359 101.632 4.845 101.688 4.8409 101.734ZM5.6316 101.791C5.5859 101.787 5.6068 101.221 5.6781 100.529C5.7495 99.8366 5.8444 99.279 5.8901 99.2837C5.9358 99.2884 5.915 99.8536 5.8436 100.546C5.7722 101.239 5.6773 101.796 5.6316 101.791ZM8.6873 100.218C8.6862 100.23 8.6421 100.233 8.562 100.23C8.4825 100.223 8.3636 100.225 8.2252 100.181C7.9452 100.119 7.5597 99.9244 7.2886 99.5607C7.0122 99.2018 6.918 98.7958 6.8799 98.5149C6.8474 98.2287 6.8747 98.0508 6.8972 98.0518C6.9205 98.0522 6.9354 98.2251 6.9958 98.4947C7.0614 98.7598 7.1688 99.1341 7.4212 99.4601C7.668 99.7903 8.0027 99.9813 8.2603 100.068C8.3858 100.125 8.4977 100.14 8.5719 100.166C8.6468 100.188 8.6885 100.207 8.6873 100.218ZM10.9168 99.3365C10.928 99.3341 10.9474 99.3831 10.9728 99.4746C10.9982 99.5661 11.0337 99.6996 11.0514 99.8688C11.0991 100.205 11.1061 100.682 11.0131 101.194C10.8346 102.228 10.3524 102.95 10.3162 102.92C10.2754 102.899 10.6775 102.164 10.8493 101.165C11.0404 100.167 10.8609 99.3449 10.9168 99.3365Z" fill="#DB8F82"/>
<path d="M57.4946 79.3038C57.4946 79.3038 53.1286 79.6388 52.8574 80.3347C52.5862 81.0306 43.7468 92.6906 39.0236 95.566C37.4782 96.5067 46.6141 104.9 47.3374 104.539C48.0607 104.177 56.2538 99.5657 56.6352 97.7574C57.0165 95.9491 57.4946 79.3038 57.4946 79.3038Z" fill="#FFD600"/>
<path d="M43.7471 101.989C45.4445 103.518 47.0242 104.686 47.3352 104.535C48.0578 104.174 56.2506 99.569 56.6371 97.754C56.8052 96.9389 56.9985 93.0653 57.1581 89.0823C54.4775 92.8384 48.9821 99.8295 43.7471 101.989Z" fill="#E4C012"/>
<path d="M79.9081 73.1949L86.0166 64.8807L79.3137 38.6025L83.4272 38.0525C83.4272 38.0525 96.2749 63.2793 95.9761 65.5316C95.6773 67.7839 88.0085 78.6598 88.0085 78.6598L79.9081 73.1949Z" fill="#FAB19E"/>
<path d="M90.0245 65.2431C90.0245 64.9547 86.8187 64.6992 85.9615 64.6415L86.0193 64.8723C86.3571 65.1278 87.8076 66.1992 88.1702 66.0672C88.5905 65.9107 87.5356 65.2266 87.5356 65.2266C87.5356 65.2266 90.008 65.581 90.0245 65.2431ZM84.0165 67.6002L79.9121 73.1962L88.0053 78.6604C88.0053 78.6604 90.9887 74.4325 93.3046 70.6991C92.3404 71.3914 91.1619 72.026 90.074 72.0013C88.1373 71.9435 85.0796 68.8365 84.0165 67.6002Z" fill="#EBA090"/>
<path d="M73.3699 77.367C73.3699 77.367 76.8132 76.8339 82.3144 68.947C82.777 68.2839 90.0243 77.5012 90.0243 77.5012C90.0243 77.5012 80.4963 88.2983 76.5042 96.5415C74.8047 100.05 73.3699 77.367 73.3699 77.367Z" fill="#FFD600"/>
<path d="M74.1594 86.976C74.7446 92.6708 75.5852 98.4399 76.5083 96.5444C80.4972 88.2947 90.0243 77.4983 90.0243 77.4983C90.0243 77.4983 89.4475 76.7977 88.615 75.8005C86.7031 78.4872 80.6949 86.1847 74.1594 86.976Z" fill="#E4C012"/>
<path d="M84.4696 39.054C85.2641 38.2077 86.0785 37.6814 86.2885 37.8785L90.1947 41.5454C90.4047 41.7426 89.9309 42.5885 89.1364 43.4349C88.3419 44.2813 87.5276 44.8075 87.3176 44.6104L83.4114 40.9434C83.2014 40.7463 83.6751 39.9003 84.4696 39.054Z" fill="#B9C1E1"/>
<path opacity="0.5" d="M83.4116 40.9416L87.3163 44.6085C87.4233 44.7153 87.716 44.6125 88.0742 44.363C87.679 43.7858 87.1887 42.8916 87.3038 42.1989C87.4153 41.5187 87.964 40.5066 88.3741 39.8321L86.2881 37.8804C86.0823 37.6826 85.2655 38.2039 84.4673 39.0516C83.677 39.895 83.1978 40.7481 83.4116 40.9416Z" fill="#929ED3"/>
<path d="M69.1062 27.4802C69.1062 27.4802 64.8362 26.2306 63.6079 26.2983C62.3795 26.366 64.9906 25.2039 64.984 25.0498C64.9773 24.8956 62.0818 25.5163 62.0762 24.8928C62.0707 24.2693 65.0987 23.644 66.4562 24.8803C66.7246 25.1247 64.6451 21.104 65.6062 21.5181C66.5674 21.9324 67.3602 23.6736 67.6292 22.9109C68.1282 21.4963 66.8248 17.3052 67.4156 18.2293C68.0065 19.1533 68.1946 21.4448 68.5506 21.179C68.9065 20.9131 69.4359 17.2989 69.6235 19.1179C69.8111 20.9368 72.2891 24.5203 72.1589 25.8759C72.0288 27.2313 70.7439 28.2481 69.1062 27.4802Z" fill="#DFE4EF"/>
<path d="M69.6905 25.1807C70.7169 24.0873 71.8327 23.4675 72.183 23.7964L87.9218 38.5705C87.9235 38.5721 87.9265 38.572 87.9283 38.5736C88.2801 38.9038 87.7305 40.0613 86.7051 41.1537L86.6351 41.228C86.0326 41.8533 85.4049 42.3148 84.9253 42.5106C84.6058 42.6447 84.3506 42.6608 84.2135 42.5342L84.2118 42.5361L68.4663 27.7555C68.1161 27.4269 68.6642 26.2741 69.6905 25.1807Z" fill="#E06020"/>
<path d="M68.4687 27.7543L84.2108 42.5399L84.2189 42.5357C84.3466 42.6624 84.6046 42.649 84.9288 42.5092C85.4051 42.3099 86.0336 41.8571 86.6303 41.2276L86.7056 41.1573C87.7289 40.0591 88.2826 38.9015 87.929 38.5776C87.9248 38.5696 87.9248 38.5696 87.9248 38.5696L87.7644 38.4195C86.942 39.6673 85.8178 40.9614 84.8 40.7317C83.162 40.3693 71.8769 29.6226 68.6704 26.5472C68.3548 27.1108 68.2671 27.5646 68.4687 27.7543Z" fill="#D3581E"/>
<path d="M73.4988 26.1026L74.1357 26.9496L74.4246 25.9288L74.4485 25.92L72.7273 24.3042L72.6786 24.2898L73.0472 25.2818L72.4404 26.1521L73.4988 26.1026Z" fill="#FFD600"/>
<path d="M84.5364 42.5271L84.9253 42.5108C85.4048 42.3149 86.0326 41.8535 86.6351 41.2282L86.6103 40.3177L85.7881 40.9779L85.6988 40.9487L84.8314 40.687L84.7707 40.669L84.7968 40.7323L85.1085 41.5776L85.1434 41.6647L84.5364 42.5271Z" fill="#E4C012"/>
<path d="M78.0195 32.25L78.3913 33.2422L77.7847 34.111L78.8432 34.0639L79.482 34.9093L79.7644 33.888L80.7658 33.5417L79.8818 32.9576L79.8618 31.8982L79.0331 32.5584L78.0195 32.25Z" fill="#E4C012"/>
<path d="M72.7422 31.7671L73.8635 32.8197L73.8865 32.7868L74.9461 32.7774L74.2975 31.9428L74.6228 30.9328L73.6264 31.2895L72.7679 30.6704L72.7971 31.7253L72.7422 31.7671Z" fill="#FFD600"/>
<path d="M84.2617 37.7782L84.8602 36.9001L85.9201 36.8988L85.3382 36.1423L84.4196 35.28L83.7418 34.7917L83.7711 35.8466L82.9116 36.4719L83.9327 36.7688L84.2617 37.7782Z" fill="#FFD600"/>
<path d="M71.572 28.0961L71.9307 28.644L71.6826 29.2501L72.3146 29.0783L72.8143 29.5014L72.8462 28.8474L73.4031 28.5029L72.7908 28.2704L72.6353 27.6344L72.2251 28.1447L71.572 28.0961Z" fill="#E4C012"/>
<path d="M77.2787 30.4916L77.9115 30.3151L78.4147 30.7407L78.4423 30.0895L78.71 29.9205L77.9569 29.2136L77.8218 29.3825L77.1699 29.3387L77.5285 29.8855L77.2787 30.4916Z" fill="#FFD600"/>
<path d="M79.6133 36.8995L79.972 37.4473L79.7239 38.0534L80.3558 37.8816L80.8556 38.3048L80.8875 37.6507L81.4444 37.3062L80.8322 37.0737L80.6766 36.4377L80.2663 36.9481L79.6133 36.8995Z" fill="#FFD600"/>
<path d="M82.5481 31.5472C82.5481 31.5472 83.0654 30.3857 81.3615 30.2665C79.6575 30.1476 79.3572 31.2513 79.7948 31.5897C80.2324 31.9282 80.488 32.1779 81.3678 31.8457C81.3678 31.8457 80.8056 32.4396 81.2397 32.8923C81.6739 33.3448 82.2945 33.2833 82.2945 33.2833C82.2945 33.2833 81.6861 33.7076 81.7774 34.0145C81.8687 34.3215 82.55 34.7564 83.3351 34.5372C83.3351 34.5372 82.8357 35.2043 83.7527 35.5736C84.6696 35.9428 84.6106 35.6261 84.6106 35.6261L85.3004 36.5528C85.3004 36.5528 86.1998 35.2606 84.7041 34.1955C84.7041 34.1955 84.9968 33.0438 83.6029 33.0042C83.6029 33.0042 84.1535 31.4683 82.5481 31.5472Z" fill="#FAB19E"/>
<path d="M82.5381 31.5591C82.5357 31.6132 82.2552 31.63 81.9304 31.7185C81.6033 31.802 81.3583 31.9283 81.3291 31.8908C81.2944 31.8511 81.5246 31.6365 81.8843 31.5443C82.2431 31.4478 82.5433 31.5142 82.5381 31.5591ZM83.633 32.981C83.6298 33.0072 83.5542 33.0205 83.4364 33.0466C83.318 33.0723 83.1552 33.1124 82.974 33.1594C82.6118 33.2532 82.313 33.3304 82.2945 33.2833C82.2763 33.238 82.5524 33.0828 82.929 32.985C83.1169 32.9362 83.2946 32.9137 83.4256 32.9197C83.5571 32.9252 83.6361 32.9579 83.633 32.981ZM84.704 34.1954C84.6975 34.2221 84.6164 34.2233 84.4924 34.2418C84.3676 34.2613 84.1976 34.3025 84.0109 34.3638C83.6372 34.485 83.3376 34.6158 83.3126 34.5713C83.2877 34.53 83.5576 34.322 83.9558 34.1923C84.1538 34.1272 84.3475 34.1018 84.4884 34.1145C84.6305 34.1283 84.7101 34.1741 84.704 34.1954Z" fill="#DB8F82"/>
<path d="M76.5883 35.6147C77.3107 36.3555 77.5865 36.9574 78.0686 38.4455C78.5507 39.9335 79.9487 39.9526 79.9487 39.9526C80.3776 39.4526 81.127 38.7242 79.7662 36.9833C78.223 35.009 75.8658 34.874 76.5883 35.6147Z" fill="#FAB19E"/>
<path d="M78.615 35.8255C78.631 35.8067 78.8104 35.9367 79.088 36.1651C79.3532 36.406 79.72 36.7468 80.0423 37.1983C80.3634 37.6479 80.5754 38.1231 80.6131 38.4935C80.6661 38.8644 80.5467 39.0897 80.5251 39.074C80.5019 39.0664 80.5678 38.8537 80.4874 38.5143C80.4215 38.1756 80.2056 37.7376 79.8958 37.3031C79.2597 36.4388 78.571 35.8731 78.615 35.8255Z" fill="#DB8F82"/>
<path d="M62.4254 7.50006C61.5699 7.95556 60.742 8.50516 60.3209 9.26626C60.2705 9.35756 60.1579 9.65396 60.2798 9.30266C60.4021 8.94926 60.3099 9.23126 60.2939 9.32256C60.2728 9.44196 60.2638 9.56466 60.268 9.68916C60.2793 10.0374 60.3953 10.3953 60.5927 10.7403C61.0061 11.4631 61.7237 12.0819 62.2612 12.7635C62.8379 13.4944 62.9788 14.1557 62.737 14.8605C62.5917 15.2842 62.4289 15.6746 62.0821 16.0063C61.6858 16.3851 61.1602 16.6674 60.6042 16.906C60.7693 16.8353 60.629 16.4211 60.7997 16.3479C61.2871 16.1389 61.7489 15.8969 62.1236 15.5849C62.3233 15.4187 62.4975 15.2334 62.6284 15.0261C62.6545 14.9844 62.6798 14.9424 62.7022 14.8991C62.6071 15.0822 62.6805 14.9588 62.6764 14.8937C62.6696 14.7841 62.6857 14.6784 62.6724 14.5671C62.5827 13.8218 61.932 13.1444 61.3424 12.4999C60.7275 11.8276 60.1484 11.1219 60.0793 10.3539C60.0324 9.83196 60.2277 9.33026 60.4314 8.87786C60.8133 8.02966 61.7055 7.42956 62.6208 6.94226C62.4574 7.02916 62.5937 7.41066 62.4254 7.50006Z" fill="#FFD600"/>
<path d="M43.8851 12.405C43.9374 12.678 43.9959 12.9495 44.0668 13.2181C44.1184 13.4127 44.1816 13.6022 44.2394 13.7949C44.2503 13.8313 44.3254 14.0306 44.2458 13.8289C44.1371 13.5536 44.4073 14.1361 44.3703 14.0669C44.6513 14.5918 45.0173 15.0762 45.4894 15.4434C46.4303 16.1753 47.558 16.2138 48.6925 16.0719C49.7649 15.9379 50.8905 15.7146 51.9107 16.2016C52.6421 16.5508 53.1722 17.1828 53.5321 17.8967C54.0834 18.9899 54.4334 20.1727 54.6013 21.3827C54.5643 21.117 54.3249 20.8775 54.2878 20.6089C54.2384 20.253 54.1799 19.8988 54.1003 19.5484C54.0603 19.372 54.0158 19.1965 53.9651 19.023C53.9423 18.9448 53.9176 18.8674 53.8926 18.7899C53.8691 18.7148 53.8439 18.6405 53.8168 18.5668C53.8616 18.6758 53.9062 18.7849 53.9509 18.8939C53.8453 18.4713 53.4682 17.9985 53.1756 17.6827C52.5538 17.0112 51.706 16.6797 50.7956 16.6715C49.7005 16.6616 48.6258 17.0127 47.5277 16.9011C46.3011 16.7762 45.3373 16.0033 44.7437 14.9497C44.1729 13.9371 43.79 12.7681 43.5718 11.6313C43.6229 11.898 43.8334 12.1358 43.8851 12.405Z" fill="#C9A923"/>
<path d="M55.3355 12.267C55.072 12.1785 54.8109 12.0841 54.5542 11.9777C54.3681 11.9007 54.1891 11.8125 54.0056 11.7294C53.971 11.7138 53.7836 11.6125 53.9729 11.7185C54.2311 11.8632 53.69 11.5173 53.7535 11.5633C53.2711 11.2145 52.8402 10.7868 52.5395 10.2697C51.9404 9.23929 52.0535 8.11669 52.3461 7.01149C52.6226 5.96669 52.9949 4.88129 52.6489 3.80489C52.401 3.03329 51.8455 2.42329 51.1867 1.97099C50.1771 1.27829 49.0519 0.772492 47.8752 0.444092C48.1336 0.516292 48.3389 0.785593 48.6001 0.858493C48.9462 0.955093 49.2892 1.06049 49.6261 1.18639C49.7953 1.24959 49.9633 1.31749 50.1284 1.39069C50.2029 1.42389 50.2763 1.45859 50.3498 1.49389C50.4209 1.52719 50.4912 1.56219 50.5607 1.59889C50.4586 1.53989 50.3566 1.48099 50.2545 1.42209C50.6591 1.58329 51.077 2.02049 51.3509 2.35279C51.9328 3.05889 52.1476 3.94379 52.0338 4.84689C51.8969 5.93349 51.4048 6.95139 51.3684 8.05449C51.3275 9.28689 51.9642 10.3454 52.9286 11.0751C53.8558 11.7765 54.9629 12.3125 56.0602 12.6812C55.8029 12.5946 55.5954 12.3542 55.3355 12.267Z" fill="#DFE4EF"/>
<path d="M59.0142 22.0994C60.7021 22.0112 62.2839 21.0226 63.1028 19.5442C63.1122 19.5272 63.4728 19.6422 63.5064 19.6515C63.538 19.6602 63.901 19.7786 63.9075 19.767C63.0885 21.2453 61.5068 22.2341 59.8188 22.3222C59.6992 22.3284 59.5306 22.2466 59.4154 22.2148C59.3207 22.1885 59.2257 22.1622 59.1313 22.1349C59.0992 22.1255 59.0461 22.0976 59.0142 22.0994Z" fill="#B9C1E1"/>
<path d="M43.8196 7.40576C44.4462 8.97546 45.8912 10.1552 47.5544 10.455C47.5737 10.4584 47.5807 10.8369 47.5827 10.8716C47.5846 10.9044 47.5893 11.2862 47.6024 11.2886C45.9392 10.9887 44.4942 9.80906 43.8676 8.23936C43.8232 8.12816 43.8465 7.94206 43.8395 7.82276C43.834 7.72466 43.8283 7.62636 43.8238 7.52806C43.8222 7.49466 43.8315 7.43546 43.8196 7.40576Z" fill="#B9C1E1"/>
<path d="M81.4407 121.494C81.4407 121.494 60.8367 125.578 56.119 125.338C51.4012 125.098 44.3372 124.41 44.8542 123.416C51.0162 111.567 54.7506 79.9042 57.4946 79.3038C60.2386 78.7034 73.4013 76.8429 73.8346 77.4943C74.2678 78.1456 81.4407 121.494 81.4407 121.494Z" fill="#FFD600"/>
<path d="M75.0901 85.766C75.0901 85.766 77.2723 101.635 77.8254 101.045C78.3785 100.454 76.4994 85.9574 75.0901 85.766Z" fill="#E06020"/>
<path d="M56.116 125.338C60.8405 125.58 81.4387 121.491 81.4387 121.491C81.4387 121.491 79.5507 110.073 77.6537 98.8793C78.1268 104.323 78.3651 111.296 78.5798 112.2C78.9825 113.918 75.3629 111.997 74.5666 111.791C73.7702 111.594 75.7656 114.717 77.6715 116.328C79.5864 117.947 75.1571 116.829 73.3675 116.757C71.5779 116.695 74.7545 118.538 77.0719 119.469C79.3894 120.399 57.9412 121.562 57.0375 121.052C56.1338 120.542 57.646 119.343 59.382 117.804C61.1268 116.256 56.9391 118.234 56.1965 116.936C55.5881 115.863 55.1647 84.9279 54.6271 87.2282C52.2153 97.5474 49.1162 115.22 44.8506 123.415C44.3406 124.408 51.4005 125.097 56.116 125.338Z" fill="#E4C012"/>
<path d="M54.712 86.8881C54.712 86.8881 50.2249 104.698 50.8566 104.323C51.4883 103.947 55.8716 87.1381 54.712 86.8881Z" fill="#E06020"/>
<path d="M51.6136 103.238C51.6136 103.238 47.8771 124.246 48.3804 124.472C48.8561 124.687 52.2552 103.963 51.6136 103.238Z" fill="#C9A923"/>
<path d="M60.9572 70.469L65.6462 69.9819L67.7706 77.4842C67.7706 77.4842 66.371 80.5444 64.012 80.2928C61.6417 80.0461 60.5071 78.0104 60.5071 78.0104L60.9572 70.469Z" fill="#FAB19E"/>
<path d="M60.7502 74C61.6926 74.4324 63.0127 74.9165 63.9488 74.7565C64.9424 74.5902 65.9714 73.8967 66.6147 73.3965L65.6496 69.9784L60.9585 70.4658L60.7502 74Z" fill="#EBA090"/>
<path d="M67.5919 75.8424C67.5919 75.8424 66.3147 77.9 64.1855 78.1754C62.0562 78.4508 60.3803 76.8454 60.3803 76.8454C60.3803 76.8454 59.3085 78.3881 59.3894 78.7718C59.4702 79.1554 62.7622 81.9589 64.9581 81.754C66.7875 81.5833 68.7668 77.9383 68.6519 77.6019C68.537 77.2657 67.5919 75.8424 67.5919 75.8424Z" fill="#E06020"/>
<path d="M69.1253 66.2273L68.5583 61.3762C72.3089 58.7418 72.3568 65.8389 69.1253 66.2273Z" fill="#FAB19E"/>
<path d="M68.5613 61.3762L69.1233 66.2244C69.9703 66.1208 70.5947 65.5494 70.9959 64.819C70.4985 64.7702 70.0051 64.6523 69.826 64.3742C69.5456 63.9012 69.3818 61.8707 69.3273 60.9496C69.0972 61.0433 68.8381 61.1859 68.5613 61.3762Z" fill="#EBA090"/>
<path d="M70.3806 62.3789C67.6617 64.29 72.1911 63.4994 70.0256 63.1362C70.0256 63.1362 70.8505 62.2387 70.3806 62.3789Z" fill="#3A3A60"/>
<path d="M56.2197 67.6323L55.7295 62.7728C51.4998 61.0071 52.9803 67.9483 56.2197 67.6323Z" fill="#FAB19E"/>
<path d="M54.0867 66.6483C54.6255 67.2877 55.3582 67.7115 56.219 67.6292L55.7248 62.7737C55.4725 62.6638 55.2364 62.5979 55.0255 62.5522C55.1652 63.5211 55.3609 65.4225 54.956 66.1188C54.782 66.4125 54.4562 66.5737 54.0867 66.6483Z" fill="#EBA090"/>
<path d="M54.5849 64.9071C54.5849 64.9071 53.6308 64.2395 54.098 64.2736C57.0271 65.4976 52.6394 65.6911 54.5849 64.9071Z" fill="#3A3A60"/>
<path d="M67.9895 56.7878C67.9895 56.7878 60.6215 60.1004 55.4918 58.4401C55.4918 58.4401 53.3697 74.1851 63.2096 73.9C73.0265 73.6155 67.9895 56.7878 67.9895 56.7878Z" fill="#FAB19E"/>
<path d="M55.3974 53.4227C56.4052 51.9745 59.5282 50.7367 62.8186 50.2083C68.0349 49.372 66.5853 53.9483 66.5853 53.9483C66.5853 53.9483 67.8114 53.9271 67.9571 54.1214C70.8451 57.9709 69.3998 61.4211 69.3998 61.4211C69.3998 61.4211 69.1611 63.1341 68.9449 62.167C68.7265 61.2004 67.3348 57.1917 67.3348 57.1917C67.3348 57.1917 66.1232 58.386 63.1538 58.8097C60.1793 59.232 55.471 58.8807 55.471 58.8807C55.471 58.8807 55.8153 63.7816 55.2777 63.4096C55.2777 63.4096 54.1692 62.358 53.8921 60.8298C53.6912 59.7116 52.8129 55.8824 55.3974 53.4227Z" fill="#3A3A60"/>
<path d="M60.0323 61.4823C60.2739 61.8623 59.1147 62.8553 57.439 63.0899C55.7636 63.3242 59.4785 60.6107 60.0323 61.4823ZM63.4499 61.051C63.5235 60.6065 65.0493 60.6392 66.4545 61.581C67.8595 62.5232 63.2818 62.0697 63.4499 61.051ZM60.8365 65.176C61.1272 64.7025 60.6931 64.0307 59.6444 63.6299C59.0057 63.1176 56.4499 65.1075 58.3126 64.9139C59.8852 63.3409 59.952 65.7239 60.8365 65.176ZM66.0217 64.5078C66.3122 64.034 65.8787 63.3624 64.8294 62.9619C64.191 62.4487 61.6367 64.4397 63.4978 64.2455C65.0705 62.6727 65.1369 65.0554 66.0217 64.5078ZM62.4067 64.9543C60.8156 71.0995 65.7386 67.0537 62.5238 67.6058C62.5238 67.6058 62.6287 64.8886 62.4067 64.9543ZM65.0992 69.4525C64.3225 68.8959 63.3279 70.5204 61.9078 69.846C60.707 70.2613 61.8295 71.4019 63.4694 71.142C64.7958 70.8859 65.561 70.0549 65.0992 69.4525Z" fill="#3A3A60"/>
<path d="M159.118 224.91L164.895 224.73L164.959 233.02C164.959 233.02 164.439 234.301 164.245 234.737C163.76 235.822 152.473 235.113 153.303 234.521C153.89 234.103 157.462 232.633 159.618 232.065L159.118 224.91Z" fill="#FAB19E"/>
<path d="M159.539 230.953L159.115 224.912L164.9 224.731L164.934 229.164C163.666 229.861 161.001 231.187 159.539 230.953Z" fill="#DB8F82"/>
<path d="M153.729 234.304C153.928 234.731 159.946 233.476 160.656 233.316C164.459 232.459 164.973 230.392 164.992 230.407C165.776 231.001 166.98 235.416 166.098 236.392C166.119 236.744 166.109 237.531 165.638 237.851C165.484 237.955 164.614 238.115 163.338 238.275C163.251 238.286 163.075 237.83 162.899 237.395C160.779 237.762 149.915 239.556 148.906 238.129C148.61 237.712 148.67 236.366 150.226 235.596C151.26 235.085 152.365 234.523 153.729 234.304Z" fill="#FFD600"/>
<path d="M163.341 238.275C163.254 238.284 163.074 237.827 162.902 237.395C160.783 237.765 149.916 239.555 148.909 238.132C157.92 237.999 163.563 236.231 163.563 236.231C163.563 236.231 163.502 237.125 164.007 237.642C164.371 238.023 165.493 237.435 166.061 237.094C166.01 237.39 165.886 237.681 165.641 237.848C165.484 237.952 164.617 238.117 163.341 238.275Z" fill="#E4C012"/>
<path d="M162.472 94.5082C162.472 94.5082 153.573 90.9497 149.882 89.9343C149.657 89.7388 122.72 73.7159 122.72 73.7159L118.608 77.5777C118.608 77.5777 147.381 99.3301 147.471 99.331L157.447 104.397L162.472 94.5082Z" fill="#FAB19E"/>
<path d="M157.23 92.4753C155.727 93.8673 152.231 97.5579 152.09 101.678L157.445 104.401L162.474 94.505C162.474 94.505 160.058 93.5389 157.23 92.4753ZM148.379 89.1665C148.119 88.941 147.36 92.1526 147.903 91.662C148.447 91.1714 148.486 89.2588 148.379 89.1665ZM148.617 89.5329C148.558 89.5324 149.563 94.3537 149.854 93.8798C150.146 93.4059 149.206 89.5383 148.617 89.5329Z" fill="#EBA090"/>
<path d="M119.326 66.7877C118.892 66.8244 118.698 67.166 118.775 67.6776C118.938 68.7673 119.21 69.8343 119.434 70.9491C117.63 69.7457 115.663 68.488 113.859 67.2846C113.659 67.4829 113.668 67.7854 113.755 68.0004C113.842 68.2153 113.999 68.3935 114.155 68.5645C114.769 69.2348 115.425 69.8663 116.118 70.454C114.756 69.7797 113.795 69.2635 112.489 68.6829C112.367 68.8659 112.334 69.1897 112.443 69.3804C112.553 69.5712 112.868 69.8289 113.039 69.9675C113.815 70.5968 114.449 71.1115 115.224 71.7408C114.248 71.3372 113.185 71.0189 112.209 70.6152C112.085 70.7313 112.069 71.0334 112.136 71.1897C112.204 71.3459 112.326 71.4744 112.46 71.5793C113.14 72.112 114.101 72.7166 114.662 73.1202C113.98 72.9145 113.253 72.7724 112.571 72.5666C112.294 73.1767 113.139 73.3528 113.567 73.6844C115.344 75.0605 117.203 76.5126 118.98 77.8887C118.98 77.8887 120.324 78.9239 121.403 79.619C121.442 79.5587 124.434 75.4706 124.712 75.1445C124.211 74.7785 123.17 73.9855 123.17 73.9855C122.923 71.0561 121.485 70.4501 119.326 66.7877Z" fill="#FAB19E"/>
<path d="M116.651 70.7678C116.623 70.8136 116.387 70.7182 116.125 70.5547C115.863 70.3912 115.674 70.2216 115.702 70.1758C115.731 70.13 115.966 70.2253 116.228 70.3888C116.49 70.5524 116.68 70.722 116.651 70.7678ZM115.887 72.168C115.859 72.2138 115.623 72.1184 115.361 71.9549C115.099 71.7914 114.91 71.6218 114.938 71.5759C114.967 71.5301 115.203 71.6255 115.465 71.789C115.727 71.9525 115.916 72.1222 115.887 72.168ZM115.283 73.5361C115.254 73.5819 115.019 73.4865 114.757 73.323C114.495 73.1595 114.306 72.9899 114.334 72.944C114.363 72.8982 114.598 72.9936 114.86 73.1571C115.122 73.3207 115.312 73.4903 115.283 73.5361ZM116.08 74.0182C116.035 73.9889 116.358 73.408 116.802 72.7207C117.246 72.0334 117.642 71.4999 117.688 71.5292C117.733 71.5585 117.41 72.1394 116.966 72.8268C116.522 73.5141 116.126 74.0475 116.08 74.0182ZM120.12 73.9989C120.112 74.0102 120.064 73.9906 119.982 73.9442C119.902 73.8949 119.776 73.8341 119.655 73.7132C119.395 73.4999 119.095 73.0902 119.005 72.5647C118.907 72.0415 119.025 71.566 119.134 71.2515C119.253 70.9344 119.376 70.7626 119.399 70.7757C119.423 70.7886 119.347 70.9776 119.266 71.2922C119.194 71.6049 119.107 72.0541 119.197 72.53C119.28 73.0075 119.529 73.3859 119.752 73.6143C119.853 73.7407 119.963 73.8158 120.026 73.8824C120.093 73.9463 120.127 73.9876 120.12 73.9989ZM122.925 74.2637C122.938 74.2672 122.932 74.3288 122.91 74.4383C122.888 74.5476 122.854 74.7064 122.782 74.8932C122.653 75.2708 122.406 75.774 122.036 76.2609C121.298 77.2484 120.408 77.7474 120.386 77.6969C120.354 77.6539 121.167 77.0985 121.879 76.1431C122.612 75.1992 122.862 74.2428 122.925 74.2637Z" fill="#DB8F82"/>
<path d="M163.953 134.472C163.953 134.472 151.897 169.952 151.479 173.192C151.062 176.431 158.5 228.954 158.5 228.954L165.462 227.879L167.213 175.933C167.213 175.933 179.2 159.985 180.704 153.756C182.209 147.526 180.704 135.815 180.704 135.815L163.953 134.472Z" fill="#9B69CC"/>
<path d="M155.672 176.896C156.51 178.483 161.311 181.573 160.83 182.22C160.364 182.852 157.424 190.692 166.569 194.879L167.209 175.933C167.209 175.933 179.202 159.985 180.706 153.756C182.209 147.526 180.706 135.815 180.706 135.815L163.953 134.469C163.953 134.469 162.948 137.418 161.511 141.695C163.363 141.446 165.556 141.214 166.42 141.953C167.724 143.074 163.803 172.602 162.308 173.532C160.813 174.471 157.632 173.624 158.379 174.845C159.127 176.057 162.682 176.149 161.37 176.896C160.065 177.644 154.833 175.31 155.672 176.896Z" fill="#895DBE"/>
<path d="M162.261 89.5876C163.162 85.4016 164.371 84.6979 165.852 83.0215C166.695 82.0718 168.707 81.0595 169.721 78.6578C171.49 74.4769 175.699 75.0127 178.988 77.1952C180.906 78.4678 184.9 78.4828 184.591 80.8348C184.25 83.4271 190.499 83.7649 192.687 88.216C194.871 92.6706 188.815 94.184 194.182 100.514C199.553 106.847 203.686 113.487 195.641 119.011C191.297 121.99 185.746 122.453 180.821 119.37C176.631 116.747 172.886 111.561 170.728 103.175C168.763 95.5585 160.85 96.1504 162.261 89.5876Z" fill="#3A3A60"/>
<path d="M197.702 195.548L199.265 189.983L207.192 192.412C207.192 192.412 208.258 193.293 208.616 193.609C209.505 194.397 205.438 204.951 205.123 203.981C204.9 203.295 204.571 199.447 204.677 197.22L197.702 195.548Z" fill="#FAB19E"/>
<path d="M203.593 196.961L197.703 195.551L199.268 189.979L203.507 191.278C203.791 192.696 204.255 195.637 203.593 196.961Z" fill="#DB8F82"/>
<path d="M205.044 203.509C205.511 203.448 206.121 197.331 206.182 196.606C206.507 192.72 204.689 191.61 204.71 191.596C205.512 191.027 210.084 191.204 210.75 192.339C211.093 192.425 211.84 192.671 212.004 193.216C212.057 193.394 211.948 194.272 211.717 195.537C211.702 195.623 211.214 195.655 210.746 195.691C210.46 197.824 208.907 208.725 207.244 209.259C206.757 209.416 205.491 208.954 205.224 207.239C205.047 206.099 204.843 204.877 205.044 203.509Z" fill="#FFD600"/>
<path d="M211.719 195.534C211.701 195.62 211.211 195.654 210.747 195.689C210.463 197.821 208.907 208.724 207.247 209.257C206.809 209.395 205.768 209.051 205.347 207.77C205.897 208.088 206.517 208.139 207.153 207.606C209.285 205.835 209.836 194.708 209.836 194.708C209.836 194.708 210.67 195.035 211.314 194.708C211.787 194.476 211.564 193.229 211.409 192.585C211.676 192.722 211.916 192.929 212.002 193.212C212.054 193.393 211.951 194.27 211.719 195.534Z" fill="#E4C012"/>
<path d="M179.096 180.162C179.096 180.162 195.998 154.13 194.774 144.459C194.469 142.053 193.985 140.136 193.374 138.587H170.347L170.508 152.069C165.725 166.529 160.253 182.234 163.841 187.538C170.245 197.005 199.804 197.705 199.804 197.705C205.251 193.668 202.38 189.253 202.38 189.253L179.096 180.162Z" fill="#9B69CC"/>
<path d="M199.804 197.707C199.804 197.707 197.576 197.647 194.215 197.385C196.336 195.764 198.577 193.25 197.326 190.461C195.169 185.635 171.872 182.811 169.62 181.739C167.38 180.654 173.755 180.13 175.221 179.332C176.698 178.545 174.291 178.652 173.29 178.39C172.277 178.116 176.698 177.055 177.508 175.709C178.307 174.362 189.973 149.302 189.437 147.384C188.901 145.465 179.248 145.548 176.829 145.811C174.422 146.085 173.29 155.201 173.29 155.201L167.213 162.112C168.261 158.788 169.405 155.391 170.502 152.067L170.347 138.589H193.369C193.989 140.138 194.465 142.057 194.775 144.464C196.003 154.128 179.093 180.166 179.093 180.166L202.378 189.258C202.378 189.258 205.25 193.667 199.804 197.707Z" fill="#895DBE"/>
<path d="M171.074 137.167L171.138 151.243C171.138 151.243 167.913 161.989 167.213 162.112C166.513 162.236 170.132 151.176 170.132 151.176L169.13 137.167H171.074Z" fill="#7751AF"/>
<path d="M171.558 96.4278C171.558 96.4278 166.013 96.1449 160.29 92.9904C159.576 92.5971 154.149 103.61 154.149 103.61C154.149 103.61 163.373 108.947 167.123 112.58C170.876 111.418 171.558 96.4278 171.558 96.4278Z" fill="#FFD600"/>
<path d="M171.555 96.4277C171.555 96.4277 170.876 111.415 167.127 112.584C163.369 108.947 154.152 103.607 154.152 103.607C154.152 103.607 154.582 102.73 155.218 101.484C158.038 103.453 162.802 106.582 163.971 106.264C165.657 105.817 166.293 103.195 166.293 103.195C166.293 103.195 161.478 98.7407 161.71 93.7106C166.903 96.187 171.555 96.4277 171.555 96.4277Z" fill="#E4C012"/>
<path d="M160.828 137.167C160.828 137.167 179.953 140.958 184.333 140.735C188.712 140.512 195.269 139.874 194.789 138.951C189.07 127.952 185.603 98.5609 183.056 98.0036C180.509 97.4462 171.024 95.9646 170.622 96.5692C170.487 96.7723 168.814 98.4234 167.757 104.543C167.34 106.955 163.974 109.905 163.521 112.58C163.262 114.106 166.019 120.593 165.763 122.11C164.218 131.275 160.828 137.167 160.828 137.167Z" fill="#FFD600"/>
<path d="M194.788 138.947C193.017 135.542 191.461 130.374 190.085 124.837C182.054 116.901 173.516 104.33 169.552 98.3108C168.976 99.5146 168.288 101.458 167.755 104.545C167.342 106.952 163.971 109.901 163.524 112.584C163.258 114.106 166.018 120.589 165.76 122.111C164.221 131.277 160.824 137.167 160.824 137.167C160.824 137.167 179.956 140.959 184.333 140.736C188.709 140.512 195.27 139.876 194.788 138.947ZM184.668 135.026C183.653 135.705 180.437 134.261 181.031 135.37C181.615 136.479 183.593 138.216 181.925 138.362C180.265 138.509 165.115 136.686 165.914 135.327C166.723 133.96 171.443 131.484 169.371 131.466C167.299 131.449 164.883 133.091 166.241 130.675C167.591 128.25 170.773 122.163 169.371 121.097C167.978 120.03 165.536 117.838 164.874 114.725C164.203 111.612 171.34 109.858 171.34 109.858C171.46 110.555 183.326 128.474 184.307 130.538C185.296 132.61 181.882 130.847 182.914 132.404C183.937 133.96 185.682 134.356 184.668 135.026Z" fill="#E4C012"/>
<path d="M183.455 98.1837C183.455 98.1837 187.915 100.182 188.769 101.553C189.622 102.923 198.149 123.669 197.776 126.659C197.402 129.649 195.043 134.347 190.122 133.288C185.201 132.229 182.129 118.586 182.129 118.586L179.347 106.972C179.347 106.972 180.154 100.857 183.455 98.1837Z" fill="#FFD600"/>
<path d="M182.251 97.8403C179.285 96.2813 173.106 95.5296 169.375 96.1485C169.024 97.7383 168.4 101.707 173.574 103.363C178.603 104.969 181.275 100.084 182.251 97.8403Z" fill="#E06020"/>
<path d="M172.842 95.9319C172.999 95.1495 173.598 90.7402 173.565 90.6107L180.189 86.2805L179.27 96.7685C179.691 96.9525 180.651 96.903 181.929 97.6265C178.502 103.484 171.097 104.703 169.799 96.0858C171.02 95.8136 172.114 96.1178 172.842 95.9319Z" fill="#FAB19E"/>
<path d="M172.999 95.1495C173.018 94.4656 173.315 92.5177 173.466 91.4097C174.816 91.1828 177.171 90.6367 178.122 89.405C178.122 89.405 178.461 95.0696 172.999 95.1495Z" fill="#EBA090"/>
<path d="M181.783 83.295C178.41 98.1199 164.302 95.0363 171.295 78.5181C171.363 80.6424 179.478 80.9473 179.478 80.9473C179.678 82.5704 180.511 83.4677 181.783 83.295Z" fill="#FAB19E"/>
<path d="M179.282 89.0237L180.771 84.9679C184.783 84.3851 181.988 90.0067 179.282 89.0237Z" fill="#FAB19E"/>
<path d="M181.689 86.4073C178.071 86.934 182.911 88.4064 180.965 86.9747C180.965 86.9747 182.221 86.5029 181.689 86.4073ZM174.045 81.7801C174.082 82.1598 172.826 82.4674 171.47 82.0043C170.113 81.5411 173.959 80.9096 174.045 81.7801ZM176.793 82.7604C177.019 82.4525 178.16 83.0604 178.862 84.3095C179.564 85.5588 176.277 83.4663 176.793 82.7604ZM173.241 84.88C173.641 84.6332 173.57 83.9593 172.93 83.2555C172.643 82.624 169.95 83.1516 171.433 83.7172C173.223 83.1291 172.363 84.9561 173.241 84.88ZM177.416 86.3568C177.817 86.1096 177.746 85.4361 177.106 84.7323C176.819 84.1003 174.127 84.6292 175.608 85.1938C177.398 84.6058 176.538 86.4325 177.416 86.3568ZM174.513 85.3126C170.961 89.3502 176.229 88.1734 173.587 87.3619C173.587 87.3619 174.705 85.3477 174.513 85.3126ZM173.975 89.899C173.827 89.2458 172.898 90.2198 172.52 89.2913C171.887 89.2698 171.995 90.4742 172.761 90.7418C173.395 90.9227 173.977 90.4977 173.975 89.899Z" fill="#3A3A60"/>
<path d="M195.374 122.146C195.374 122.146 197.775 125.479 197.776 126.659C197.777 130.187 194.548 131.853 193.797 132.115C193.047 132.378 192.408 131.778 192.108 131.89C191.808 132.003 190.945 132.775 190.532 132.182C190.119 131.59 187.792 131.365 187.154 130.539C186.516 129.713 184.254 126.682 184.311 124.796C184.363 123.058 193.497 120.621 195.374 122.146Z" fill="#C9A923"/>
<path d="M172.06 98.2223C172.06 98.2223 196.43 121.864 196.88 124.418C197.591 128.457 194.454 133.811 188.377 130.545C185.328 128.906 168.196 100.86 168.196 100.86L172.06 98.2223Z" fill="#FAB19E"/>
<path d="M171.387 95.3765C171.387 95.3765 169.336 91.322 168.628 91.2358L168.009 91.9073C168.009 91.9073 168.651 94.3672 168.672 94.589C168.692 94.8105 168.344 95.8937 169.335 97.0025C170.327 98.1111 171.783 96.3078 171.387 95.3765Z" fill="#DB8F82"/>
<path d="M163.701 95.7352C163.779 95.4123 164.898 95.5703 164.898 95.5703C164.898 95.5703 164.637 94.9664 165.212 94.6994C165.549 94.5426 166.063 94.751 166.063 94.751C166.063 94.751 165.818 93.9965 166.431 93.6186C167.044 93.2409 167.601 93.8292 167.601 93.8292C167.601 93.8292 167.468 92.6764 168.582 92.73C169.357 92.767 169.614 92.9367 169.873 93.4073C170.563 93.7388 172.49 97.266 172.061 98.2225C172.659 99.0736 173.492 100.407 173.492 100.407L169.7 103.053L168.196 100.86L164.552 98.0312C164.552 98.031 163.675 96.4735 163.701 95.7352Z" fill="#FAB19E"/>
<path d="M153.496 91.7761C153.403 90.4433 154.249 89.2621 155.399 88.8741C156.548 88.4861 158.455 88.5265 158.991 90.265C159.528 92.0034 158.766 92.7504 157.845 93.0236C156.924 93.2967 155.749 93.0736 155.392 92.587C155.034 92.1005 154.888 91.6461 155.193 91.1289C155.498 90.6117 155.879 90.3474 156.603 90.415C157.327 90.4826 157.608 91.1531 157.536 91.3885C157.465 91.624 157.062 91.7655 156.989 91.4292C156.916 91.0929 156.475 90.8221 156.023 91.1035C155.571 91.3849 155.549 92.2707 156.403 92.503C157.256 92.7352 158.595 92.0385 158.474 91.1866C158.337 90.2236 157.917 89.6788 156.683 89.4924C155.449 89.3061 153.839 90.6625 154.286 91.9934C154.732 93.3244 155.556 93.6842 158.079 93.5319C160.25 93.4009 167.13 91.4895 170.458 90.5349C170.467 90.5918 170.478 90.6483 170.489 90.7039C170.513 90.828 170.542 90.9509 170.567 91.0747C170.591 91.1972 170.604 91.3183 170.614 91.4424C170.615 91.4549 170.616 91.4673 170.617 91.4798C168.187 92.1849 164.498 93.1924 163.169 93.4728C161.313 93.8644 157.475 94.6114 155.921 94.3573C154.464 94.119 153.59 93.1088 153.496 91.7761Z" fill="#DFE4EF"/>
<path d="M158.206 89.1319C158.173 89.1082 158.14 89.0858 158.107 89.0642C158.106 89.0638 158.105 89.0634 158.105 89.0629C158.071 89.0414 158.036 89.0207 158.001 89.001C157.96 89.293 157.866 89.577 157.722 89.8348L157.722 89.8349C157.787 89.8756 157.847 89.9195 157.902 89.9664C158.049 89.707 158.152 89.4243 158.206 89.1319ZM154.278 91.0783C154.007 91.1484 153.745 91.2497 153.497 91.3789C153.494 91.421 153.492 91.4634 153.491 91.5059C153.491 91.5062 153.491 91.5066 153.491 91.5069C153.49 91.5496 153.49 91.5926 153.49 91.6357L153.49 91.6359C153.722 91.5055 153.969 91.4017 154.224 91.3261C154.23 91.2843 154.237 91.2427 154.246 91.2015L154.247 91.2012C154.255 91.1599 154.266 91.1189 154.278 91.0783ZM158.379 91.6872C158.372 91.7005 158.365 91.7136 158.358 91.7266C158.614 91.7548 158.873 91.7564 159.13 91.7312C159.144 91.6585 159.155 91.5822 159.162 91.5023L159.162 91.5022C158.926 91.5291 158.687 91.5324 158.451 91.511C158.442 91.5434 158.43 91.5754 158.417 91.6069C158.414 91.6132 158.412 91.6195 158.409 91.6258C158.403 91.6393 158.397 91.6525 158.39 91.6659C158.387 91.6731 158.383 91.6802 158.379 91.6872ZM156.643 93.1235C156.717 93.1313 156.793 93.1366 156.869 93.1393C156.854 92.9419 156.839 92.7444 156.823 92.5469C156.747 92.5497 156.671 92.5468 156.598 92.5388C156.613 92.7338 156.628 92.9286 156.643 93.1235ZM155.504 93.3568C155.552 93.6831 155.625 94.0044 155.722 94.3186C155.752 94.3253 155.783 94.3317 155.814 94.3379C155.849 94.3448 155.885 94.3515 155.921 94.3574C155.937 94.36 155.953 94.3623 155.97 94.3647C155.87 94.0591 155.794 93.7461 155.743 93.4293L155.742 93.4292C155.7 93.4185 155.66 93.4072 155.62 93.3951C155.62 93.3951 155.62 93.3952 155.62 93.395C155.58 93.3829 155.541 93.3703 155.504 93.3568ZM161.369 92.9422C161.29 92.9602 161.211 92.9781 161.134 92.9956C161.319 93.2608 161.516 93.5172 161.725 93.764C161.811 93.7477 161.895 93.7314 161.977 93.7152C161.762 93.4676 161.559 93.2097 161.369 92.9422ZM158.08 93.532C158.064 93.533 158.049 93.5336 158.034 93.5345C158.215 93.7909 158.414 94.0354 158.626 94.2665L158.627 94.2664C158.718 94.2553 158.81 94.2436 158.902 94.2314C158.685 94.0058 158.482 93.7665 158.297 93.5146C158.263 93.518 158.23 93.5209 158.197 93.5235C158.189 93.5242 158.181 93.5249 158.173 93.5254C158.141 93.5279 158.11 93.5302 158.08 93.532ZM155.278 90.9953C155.249 91.0378 155.221 91.0823 155.193 91.1289C155.18 91.1514 155.169 91.1738 155.157 91.196C155.37 91.2417 155.577 91.3091 155.777 91.3956C155.808 91.3249 155.85 91.2602 155.901 91.205C155.7 91.1158 155.491 91.0457 155.278 90.9953ZM157 91.4688C157.148 91.283 157.28 91.0856 157.396 90.879C157.354 90.8157 157.302 90.7536 157.241 90.6963C157.141 90.8835 157.026 91.0628 156.899 91.2329C156.943 91.2926 156.974 91.3594 156.989 91.4292C156.992 91.4434 156.996 91.4564 157 91.4688ZM154.676 89.2498C154.943 89.3949 155.195 89.5633 155.432 89.7529C155.468 89.7332 155.505 89.7144 155.542 89.6966L155.543 89.6963C155.58 89.6784 155.618 89.6616 155.656 89.6458C155.416 89.4452 155.158 89.2661 154.887 89.1106C154.814 89.1536 154.744 89.2003 154.676 89.2498Z" fill="#929ED3"/>
<path d="M156.422 88.6801C156.422 88.6801 156.422 88.68 156.423 88.68C156.464 88.6778 156.505 88.6764 156.547 88.6755C156.547 88.6755 156.547 88.6755 156.547 88.6754C156.684 88.9439 156.789 89.2289 156.858 89.5225C156.858 89.5224 156.858 89.5225 156.857 89.5224C156.83 89.5173 156.803 89.5123 156.776 89.5075C156.746 89.5024 156.716 89.4975 156.686 89.4928C156.685 89.4927 156.684 89.4927 156.683 89.4925C156.661 89.4892 156.639 89.4864 156.617 89.4842C156.543 89.2069 156.437 88.9401 156.299 88.6888C156.34 88.6851 156.381 88.6823 156.422 88.6801ZM154.631 90.4194C154.335 90.3803 154.034 90.3786 153.737 90.4149C153.754 90.3753 153.772 90.3362 153.792 90.2975C153.792 90.2963 153.793 90.2949 153.794 90.2937C153.813 90.2545 153.833 90.2159 153.855 90.1779V90.1778C154.173 90.1513 154.494 90.165 154.809 90.2191C154.746 90.2828 154.686 90.3499 154.631 90.4194ZM156.674 93.5543C156.755 93.5582 156.839 93.5607 156.925 93.5623C157.071 93.8432 157.23 94.1174 157.4 94.3843C157.358 94.3871 157.315 94.3895 157.274 94.3918C157.272 94.3919 157.271 94.392 157.269 94.3921C157.227 94.3943 157.186 94.3965 157.145 94.3982C157.145 94.3983 157.145 94.3983 157.144 94.3983C156.975 94.124 156.817 93.8425 156.671 93.5542C156.672 93.5542 156.673 93.5542 156.674 93.5543ZM162.642 92.6403C162.841 92.9218 163.058 93.1913 163.289 93.4469C163.289 93.4469 163.289 93.447 163.289 93.447C163.272 93.4508 163.255 93.4544 163.238 93.458C163.215 93.4631 163.192 93.468 163.171 93.4726C163.17 93.4727 163.17 93.4727 163.169 93.4729C163.126 93.482 163.082 93.4912 163.037 93.5006C162.812 93.2452 162.602 92.9768 162.408 92.6971C162.409 92.6971 162.409 92.6971 162.409 92.6971C162.486 92.6783 162.564 92.6594 162.642 92.6403ZM158.397 90.8004C158.376 90.7255 158.353 90.654 158.327 90.5856C158.57 90.536 158.799 90.4341 158.998 90.2879C158.998 90.2882 158.998 90.2885 158.998 90.2888C159.022 90.3674 159.043 90.4436 159.061 90.5181C158.86 90.6525 158.633 90.7487 158.397 90.8004ZM154.363 92.2015C154.379 92.2427 154.396 92.2829 154.414 92.3219C154.414 92.3234 154.415 92.3249 154.416 92.3264C154.434 92.3661 154.452 92.405 154.471 92.4426C154.3 92.7144 154.16 93.0053 154.055 93.3086C154.055 93.3086 154.055 93.3086 154.055 93.3085C154 93.2361 153.948 93.1605 153.9 93.0825C154.021 92.7728 154.176 92.4772 154.363 92.2015ZM159.923 93.2531C160.101 93.5009 160.292 93.7386 160.499 93.9631C160.505 93.9699 160.512 93.9766 160.518 93.9835C160.432 93.9982 160.345 94.013 160.258 94.0275C160.258 94.0275 160.257 94.0276 160.257 94.0276C160.051 93.7966 159.859 93.5538 159.681 93.3003C159.681 93.3003 159.682 93.3002 159.682 93.3002C159.761 93.285 159.841 93.2694 159.923 93.2531ZM156.603 90.415C156.61 90.4157 156.617 90.4168 156.624 90.4176C156.656 90.62 156.66 90.8261 156.635 91.0297C156.567 91.0028 156.493 90.9874 156.415 90.9866C156.437 90.7925 156.431 90.5966 156.395 90.4048C156.461 90.4049 156.531 90.4082 156.603 90.415ZM155.869 92.1647C155.693 92.2875 155.54 92.4447 155.421 92.6239C155.411 92.6117 155.401 92.5994 155.392 92.5869C155.354 92.5352 155.319 92.484 155.286 92.4329C155.417 92.253 155.578 92.0968 155.763 91.971C155.788 92.0383 155.823 92.1036 155.869 92.1647ZM157.965 92.9843C157.806 92.7984 157.673 92.5919 157.569 92.3708C157.638 92.3408 157.705 92.3073 157.769 92.2707C157.876 92.4984 158.016 92.709 158.186 92.8953C158.114 92.9287 158.04 92.9581 157.965 92.9843Z" fill="#929ED3"/>
<path d="M170.555 91.6446C170.47 91.2736 170.385 90.9025 170.299 90.5315C170.291 90.4959 170.315 90.4697 170.351 90.4732C170.361 90.4742 170.371 90.4752 170.382 90.4762C170.388 90.4712 170.395 90.4674 170.406 90.467C171.035 90.436 171.662 90.3656 172.282 90.2564C172.31 90.2513 172.326 90.2718 172.327 90.2946C172.333 90.2997 172.338 90.3061 172.34 90.3159C172.399 90.5413 172.457 90.7666 172.515 90.9922C172.521 91.0163 172.511 91.0413 172.487 91.0494C171.862 91.2577 171.237 91.466 170.612 91.6744C170.591 91.6813 170.56 91.6685 170.555 91.6446Z" fill="#E4C012"/>
<path d="M170.795 91.6173C170.795 91.6173 170.635 90.3532 170.469 90.3479C170.302 90.3427 162.958 92.2135 162.914 92.4049C162.869 92.5961 163.23 93.5711 163.319 93.6252C163.407 93.6794 170.468 91.7933 170.623 91.7789C170.777 91.7644 170.795 91.6173 170.795 91.6173Z" fill="#E06020"/>
<path d="M165.794 97.8616C166.242 97.1762 165.732 96.6916 165.732 96.6916C165.732 96.6916 166.484 97.7338 167.1 97.1317C167.742 96.5035 166.761 95.4289 166.761 95.4289C166.761 95.4289 167.957 96.5676 168.583 96.1592C169.078 95.8362 168.211 94.2467 168.211 94.2467C168.211 94.2467 169.185 95.3038 169.813 94.8871C170.492 94.4366 169.874 93.4069 169.874 93.4069C169.874 93.4069 167.776 90.8143 166.924 90.4703C166.665 90.366 165.839 90.7732 165.877 91.0662C165.91 91.3204 167.171 93.0769 167.171 93.0769C167.171 93.0769 165.25 90.5685 164.96 90.5322C164.776 90.5088 164.119 91.0843 164.092 91.2715C164.055 91.5375 165.756 94.0529 165.756 94.0529C165.756 94.0529 165.036 93.4245 164.768 93.4651C164.617 93.4879 164.085 94.0064 164.044 94.1348C163.963 94.3907 164.519 95.0893 164.519 95.0893C164.519 95.0893 164.03 94.8546 163.824 94.9725C163.701 95.0431 163.564 95.151 163.44 95.3157C163.073 95.805 164.924 99.1927 165.794 97.8616Z" fill="#FAB19E"/>
<path d="M168.093 94.2818C167.992 94.3567 167.655 94.0722 167.339 93.6463C167.024 93.2207 166.851 92.8148 166.952 92.7398C167.053 92.6651 167.391 92.9496 167.706 93.3752C168.021 93.8011 168.195 94.2068 168.093 94.2818Z" fill="#DB8F82"/>
<path d="M166.563 95.1282C166.461 95.2027 166.194 95.0106 165.966 94.6995C165.739 94.3884 165.636 94.0758 165.738 94.0014C165.839 93.9269 166.106 94.119 166.334 94.4301C166.562 94.7413 166.664 95.0538 166.563 95.1282Z" fill="#DB8F82"/>
<path d="M165.408 96.2695C165.308 96.345 165.009 96.117 164.741 95.7603C164.474 95.4034 164.338 95.0529 164.439 94.9775C164.539 94.9016 164.838 95.1296 165.106 95.4867C165.374 95.8433 165.509 96.1938 165.408 96.2695Z" fill="#DB8F82"/>
<path d="M189.165 83.0529C189.165 83.0529 189.936 84.0335 189.403 84.8696C188.87 85.7057 187.459 85.1518 187.24 84.2321C187.02 83.3124 188.51 82.4696 189.165 83.0529Z" fill="#DFE4EF"/>
<path d="M189.546 84.5363C189.52 84.6481 189.468 84.7599 189.4 84.8717C188.866 85.7057 187.456 85.1555 187.241 84.2354C187.018 83.3153 188.514 82.4727 189.167 83.0488C189.167 83.0488 189.228 83.1348 189.314 83.2724C189.004 83.4444 187.981 84.158 188.574 84.4418C188.875 84.588 189.236 84.588 189.546 84.5363Z" fill="#B9C1E1"/>
<path d="M171.343 75.6763C172.855 73.9884 176.336 71.0636 181.585 72.2299C188.811 73.8357 189.166 83.053 189.166 83.053C189.166 83.053 186.596 86.3382 184.161 83.7341C183.839 83.389 180.551 76.1847 171.343 75.6763Z" fill="#E06020"/>
<path d="M171.342 75.6747C180.55 76.1837 183.839 83.3892 184.162 83.7348C186.596 86.3397 189.164 83.0547 189.164 83.0547C189.164 83.0547 189.116 81.8396 188.714 80.2157C188.629 81.8545 188.601 82.8541 188.405 82.9433C187.921 83.1514 187.51 81.4941 187.324 81.3491C187.135 81.2005 186.967 82.6795 186.822 83.222C186.673 83.7646 185.69 84.1604 185.623 83.8631C183.575 74.7411 175.266 74.0695 172.68 74.3929C172.133 74.8423 171.687 75.2919 171.342 75.6747Z" fill="#D3581E"/>
<path d="M182.582 87.0558C182.582 87.0558 180.434 81.8127 176.166 80.1854C171.899 78.5582 170.99 78.3502 170.002 82.2373C170.002 82.2373 168.876 79.206 169.46 77.4395C170.044 75.6731 172.605 73.9062 177.052 75.1682C181.498 76.4304 184.667 83.9849 184.667 83.9849C184.667 83.9849 184.648 86.3706 182.582 87.0558Z" fill="#DFE4EF"/>
<path d="M182.572 87.0385C182.443 86.7289 180.293 81.7591 176.166 80.1855C171.901 78.5604 170.99 78.354 170.001 82.2406C170.001 82.2406 169.872 81.8966 169.717 81.3635C169.838 80.0995 170.259 78.2681 171.652 77.9241C173.827 77.391 180.801 80.4607 182.572 87.0385Z" fill="#B9C1E1"/>
<path d="M27.6848 75.1337C27.4348 76.4503 27.0518 77.8125 26.2322 78.8958C26.134 79.0253 25.7942 79.3904 26.2014 78.9707C26.6111 78.5489 26.282 78.8796 26.17 78.9712C26.0236 79.0914 25.8679 79.2006 25.7048 79.2969C25.2485 79.5666 24.7381 79.728 24.2119 79.789C23.1097 79.9169 22.021 79.6237 20.9228 79.5806C19.7448 79.5343 18.8308 79.9139 18.0131 80.7528C17.5212 81.257 17.0796 81.7537 16.7875 82.4065C16.454 83.1524 16.2973 83.9634 16.2092 84.7723C16.2353 84.5322 16.8284 84.352 16.8554 84.1036C16.9324 83.3944 17.0621 82.6867 17.3177 82.0189C17.4537 81.6633 17.6249 81.3202 17.8416 81.0072C17.8851 80.9445 17.9295 80.8825 17.9768 80.8226C17.7773 81.0762 17.908 80.895 17.9941 80.8467C18.139 80.7654 18.2697 80.662 18.4193 80.5866C19.4219 80.082 20.5597 80.2538 21.6308 80.3846C22.7479 80.5208 23.894 80.5904 24.9178 80.0445C25.6136 79.6736 26.1866 79.0509 26.6922 78.4587C27.6404 77.3483 28.0634 75.8739 28.3308 74.4652C28.2831 74.7167 27.7339 74.8749 27.6848 75.1337Z" fill="#FFD600"/>
<path d="M152.86 29.013C153.804 29.5865 154.832 30.0636 155.945 30.1659C156.077 30.1782 156.262 30.141 156.382 30.1866C156.249 30.1902 156.117 30.1936 155.985 30.1971C156.089 30.1879 156.192 30.1753 156.294 30.1593C156.473 30.1318 156.65 30.0948 156.826 30.0501C157.285 29.9329 157.753 29.7718 158.173 29.5506C158.935 29.1493 159.543 28.4481 159.925 27.6845C160.216 27.1023 160.509 26.2174 160.063 25.6329C159.845 25.3478 159.489 25.1832 159.147 25.1047C159.049 25.0819 158.932 25.0865 158.837 25.0573C159.289 25.197 159.445 24.9817 159.101 25.0772C158.888 25.1363 158.69 25.2438 158.545 25.4138C158.026 26.0266 158.254 27.1189 158.759 27.6704C159.056 27.9955 159.478 28.1811 159.904 28.2631C159.978 28.2773 160.054 28.2883 160.129 28.297C160.167 28.3008 160.205 28.3043 160.243 28.308C160.582 28.3184 160.532 28.3251 160.094 28.3278C160.388 28.2472 160.705 28.2368 161.003 28.1534C161.892 27.9047 162.691 27.4562 163.225 26.6835C164.68 24.5765 163.73 21.9785 162.776 19.8902C162.82 19.9855 163.596 19.7527 163.644 19.8588C164.641 22.0419 165.665 24.9541 163.809 27.011C163.102 27.7953 162.02 28.1822 160.99 28.2934C160.105 28.3889 158.999 28.4877 158.22 27.9776C157.46 27.4803 156.998 26.0308 157.777 25.3453C158.089 25.0703 158.503 25.0546 158.897 25.0385C159.34 25.0201 159.786 24.9849 160.215 25.1296C161.187 25.4582 161.291 26.3478 160.981 27.2157C160.632 28.1917 159.883 29.1121 158.944 29.5687C157.945 30.0538 156.906 30.1868 155.811 30.2145C154.419 30.2498 153.169 29.7601 151.992 29.0443C152.195 29.1681 152.65 28.8855 152.86 29.013Z" fill="#FFD600"/>
<path d="M120.955 23.6206C121.297 23.7115 121.64 23.7945 121.987 23.8618C122.239 23.9105 122.491 23.9426 122.744 23.983C122.792 23.9907 123.062 24.0147 122.787 23.9944C122.411 23.9668 123.228 23.9792 123.128 23.9834C123.886 23.9514 124.643 23.7998 125.326 23.4614C126.685 22.7873 127.353 21.5157 127.818 20.1365C128.257 18.8327 128.623 17.4188 129.746 16.5182C130.551 15.8726 131.569 15.6144 132.586 15.5966C134.144 15.5691 135.694 15.8216 137.174 16.2984C136.849 16.1938 136.442 16.3358 136.114 16.2298C135.678 16.0897 135.24 15.9609 134.794 15.8583C134.57 15.8068 134.344 15.7606 134.117 15.7229C134.014 15.7059 133.912 15.6911 133.81 15.6772C133.71 15.6625 133.611 15.6502 133.512 15.6406C133.661 15.6495 133.811 15.6587 133.961 15.6678C133.418 15.555 132.667 15.7262 132.143 15.8868C131.03 16.2285 130.181 17.0172 129.668 18.0566C129.051 19.3067 128.859 20.7331 128.124 21.9304C127.302 23.2678 125.883 23.9455 124.347 24.0434C122.87 24.138 121.318 23.9305 119.894 23.552C120.228 23.6408 120.617 23.5311 120.955 23.6206Z" fill="#B9C1E1"/>
<path d="M95.0246 169.136C95.2784 169.382 95.5376 169.623 95.8075 169.851C96.0032 170.016 96.2076 170.168 96.4084 170.327C96.4463 170.357 96.67 170.51 96.4398 170.357C96.1255 170.15 96.8325 170.56 96.7434 170.515C97.4197 170.857 98.1547 171.095 98.9152 171.134C100.431 171.211 101.635 170.428 102.715 169.452C103.736 168.529 104.746 167.475 106.166 167.238C107.184 167.069 108.198 167.341 109.094 167.823C110.467 168.561 111.695 169.539 112.753 170.679C112.521 170.429 112.096 170.353 111.862 170.1C111.55 169.765 111.231 169.439 110.892 169.131C110.722 168.976 110.547 168.826 110.368 168.682C110.287 168.617 110.205 168.554 110.122 168.492C110.043 168.431 109.962 168.371 109.88 168.314C110.006 168.395 110.133 168.477 110.259 168.558C109.84 168.194 109.102 167.976 108.566 167.86C107.428 167.614 106.301 167.887 105.346 168.542C104.196 169.331 103.332 170.482 102.105 171.167C100.734 171.932 99.1651 171.829 97.777 171.163C96.4425 170.524 95.1903 169.584 94.1328 168.558C94.381 168.798 94.774 168.893 95.0246 169.136Z" fill="#C9A923"/>
<path d="M138.284 41.3877C138.965 43.4284 140.716 45.0333 142.807 45.536C142.832 45.5419 142.813 46.0233 142.813 46.0674C142.813 46.1093 142.791 46.595 142.807 46.5989C140.716 46.0963 138.965 44.4911 138.284 42.4504C138.236 42.3059 138.279 42.071 138.279 41.919C138.279 41.7937 138.279 41.6685 138.28 41.5432C138.281 41.5008 138.297 41.4263 138.284 41.3877Z" fill="#3C5FAD"/>
<path d="M22.27 237.336C24.4186 237.224 26.4322 235.965 27.4747 234.083C27.4867 234.062 27.9457 234.208 27.9884 234.22C28.0287 234.231 28.4908 234.382 28.4991 234.367C27.4564 236.249 25.443 237.507 23.2942 237.62C23.1419 237.627 22.9273 237.523 22.7806 237.483C22.66 237.449 22.5393 237.416 22.419 237.381C22.3781 237.369 22.3105 237.334 22.27 237.336Z" fill="#B9C1E1"/>
<path d="M126.73 241.199C128.879 241.087 130.893 239.829 131.935 237.947C131.947 237.925 132.406 238.071 132.449 238.083C132.489 238.094 132.951 238.245 132.959 238.23C131.917 240.112 129.903 241.371 127.754 241.483C127.602 241.491 127.388 241.387 127.241 241.346C127.12 241.313 126.999 241.279 126.879 241.245C126.838 241.233 126.771 241.197 126.73 241.199Z" fill="#B9C1E1"/>
<path d="M39.7337 37.8252C38.6519 39.6851 38.6034 42.0592 39.608 43.9615C39.6196 43.9835 39.2459 44.2875 39.2126 44.3168C39.1814 44.3443 38.8022 44.6487 38.8102 44.6637C37.8056 42.7612 37.8542 40.3872 38.936 38.5272C39.0127 38.3956 39.2173 38.2728 39.3315 38.1724C39.4255 38.0897 39.5196 38.0069 39.6145 37.9252C39.6467 37.8976 39.7134 37.8604 39.7337 37.8252Z" fill="#FFD600"/>
<path d="M124.455 48.5719C122.966 50.1248 120.698 50.8264 118.592 50.3858C118.568 50.3807 118.379 50.8238 118.36 50.8639C118.342 50.9015 118.154 51.3498 118.137 51.3464C120.243 51.7871 122.511 51.0853 124.001 49.5323C124.106 49.4223 124.168 49.1917 124.233 49.0544C124.286 48.9412 124.34 48.8279 124.392 48.7141C124.41 48.6755 124.427 48.601 124.455 48.5719Z" fill="#FFD600"/>
<path d="M129.889 193.281C128.4 194.834 126.132 195.535 124.026 195.095C124.002 195.09 123.812 195.533 123.794 195.573C123.776 195.61 123.588 196.059 123.571 196.055C125.677 196.496 127.945 195.794 129.435 194.241C129.54 194.131 129.602 193.901 129.667 193.763C129.72 193.65 129.774 193.537 129.826 193.423C129.844 193.384 129.861 193.31 129.889 193.281Z" fill="#FFD600"/>
<path d="M96.6394 94.6101C94.5857 95.2513 92.9466 96.9696 92.403 99.0511C92.3967 99.0751 91.9156 99.047 91.8714 99.0462C91.8297 99.0455 91.3446 99.0139 91.3403 99.0303C91.8841 96.9487 93.5229 95.2305 95.5769 94.5893C95.7223 94.5439 95.9563 94.5916 96.1082 94.5947C96.2333 94.5972 96.3587 94.5997 96.4839 94.6036C96.5262 94.6048 96.6006 94.6225 96.6394 94.6101Z" fill="#DFE4EF"/>
<path d="M171.08 53.317C169.848 53.3882 168.599 53.5828 167.706 54.2388C167.6 54.3174 167.311 54.6003 167.639 54.2589C167.969 53.9155 167.712 54.1925 167.645 54.2893C167.557 54.4163 167.481 54.5534 167.42 54.6997C167.248 55.1083 167.191 55.5839 167.236 56.088C167.329 57.1437 167.829 58.2414 168.088 59.3157C168.365 60.4679 168.176 61.3076 167.522 61.9937C167.128 62.4063 166.732 62.7711 166.154 62.9701C165.494 63.1971 164.736 63.2437 163.966 63.2235C164.195 63.2295 164.253 62.676 164.49 62.6821C165.164 62.7001 165.827 62.6662 166.427 62.5048C166.746 62.419 167.046 62.2974 167.308 62.1274C167.36 62.0933 167.412 62.058 167.461 62.02C167.253 62.181 167.404 62.0775 167.434 62.0001C167.484 61.8696 167.559 61.756 167.603 61.6202C167.896 60.7106 167.504 59.5812 167.166 58.5217C166.813 57.4169 166.519 56.2927 166.848 55.3679C167.072 54.7394 167.564 54.2633 168.041 53.8486C168.934 53.0711 170.285 52.8522 171.603 52.7762C171.368 52.7894 171.322 53.3031 171.08 53.317Z" fill="#3C5FAD"/>
<path d="M110.735 244.378C110.754 243.144 110.651 241.883 110.062 240.946C109.991 240.833 109.73 240.526 110.046 240.878C110.365 241.231 110.107 240.955 110.016 240.881C109.896 240.784 109.764 240.698 109.623 240.626C109.228 240.425 108.758 240.334 108.252 240.342C107.192 240.358 106.061 240.776 104.971 240.956C103.801 241.149 102.977 240.899 102.341 240.196C101.958 239.773 101.623 239.352 101.467 238.761C101.289 238.086 101.297 237.327 101.374 236.561C101.351 236.788 101.899 236.886 101.875 237.122C101.808 237.794 101.794 238.457 101.911 239.067C101.973 239.391 102.073 239.699 102.223 239.973C102.253 240.028 102.285 240.082 102.319 240.133C102.174 239.915 102.266 240.072 102.341 240.108C102.467 240.168 102.575 240.251 102.708 240.304C103.593 240.663 104.748 240.355 105.83 240.094C106.957 239.823 108.1 239.612 108.998 240.007C109.609 240.276 110.048 240.802 110.427 241.308C111.137 242.255 111.257 243.619 111.236 244.939C111.24 244.703 110.731 244.62 110.735 244.378Z" fill="#3C5FAD"/>
<path d="M119.371 111.086C118.14 111.157 116.89 111.351 115.998 112.007C115.891 112.086 115.603 112.369 115.931 112.028C116.26 111.684 116.003 111.961 115.936 112.058C115.848 112.185 115.773 112.322 115.711 112.468C115.539 112.877 115.483 113.353 115.527 113.857C115.62 114.912 116.121 116.01 116.379 117.084C116.657 118.236 116.468 119.076 115.813 119.762C115.419 120.175 115.023 120.54 114.446 120.739C113.786 120.966 113.028 121.012 112.258 120.992C112.486 120.998 112.545 120.445 112.781 120.451C113.456 120.469 114.119 120.435 114.718 120.273C115.037 120.188 115.337 120.066 115.599 119.896C115.652 119.862 115.703 119.827 115.752 119.789C115.545 119.949 115.695 119.846 115.725 119.769C115.776 119.638 115.851 119.524 115.894 119.389C116.187 118.479 115.796 117.35 115.457 116.29C115.104 115.186 114.81 114.061 115.139 113.136C115.363 112.508 115.856 112.032 116.332 111.617C117.225 110.84 118.577 110.621 119.894 110.545C119.659 110.558 119.614 111.072 119.371 111.086Z" fill="#3C5FAD"/>
<path d="M104.22 17.1997C103.115 17.22 101.991 17.3673 100.996 17.8759C100.879 17.9361 100.742 18.0667 100.617 18.0921C100.726 18.0186 100.836 17.9448 100.946 17.8712C100.863 17.9343 100.783 18.0001 100.705 18.0683C100.569 18.1872 100.439 18.3135 100.314 18.445C99.9888 18.7899 99.6794 19.1765 99.4428 19.588C99.0141 20.3344 98.8751 21.2525 98.9611 22.1018C99.0266 22.7494 99.2524 23.654 99.9422 23.9089C100.279 24.0334 100.668 23.9819 100.999 23.8653C101.094 23.8317 101.19 23.7655 101.286 23.7394C100.829 23.8634 100.813 24.1283 101.052 23.8639C101.2 23.7 101.31 23.5031 101.341 23.2822C101.453 22.4863 100.675 21.6857 99.9542 21.4898C99.5289 21.3742 99.0738 21.4427 98.6694 21.6017C98.5991 21.6295 98.5294 21.6605 98.4612 21.6934C98.427 21.7106 98.3928 21.728 98.3588 21.7453C98.0671 21.9176 98.1058 21.8853 98.4746 21.6486C98.2688 21.8742 98.0066 22.0526 97.7993 22.2825C97.1813 22.9681 96.7466 23.7744 96.7087 24.7129C96.6062 27.2718 98.7988 28.9582 100.722 30.2125C100.634 30.1553 100.103 30.767 100.005 30.7032C97.9952 29.3922 95.5728 27.4791 96.0396 24.749C96.2175 23.7081 96.9254 22.8018 97.7361 22.1569C98.4323 21.603 99.3142 20.9278 100.245 20.9421C101.153 20.9561 102.319 21.9334 102.027 22.9294C101.91 23.3287 101.569 23.5632 101.246 23.7873C100.881 24.0401 100.522 24.3086 100.083 24.4154C99.0859 24.6579 98.5222 23.9618 98.3201 23.0626C98.0923 22.0517 98.2328 20.8733 98.7825 19.9849C99.3669 19.0407 100.173 18.3728 101.083 17.7639C102.241 16.989 103.559 16.7345 104.936 16.7091C104.698 16.7132 104.465 17.1951 104.22 17.1997Z" fill="#FFD600"/>
<path d="M38.3329 142.304C38.8824 143.262 39.3331 144.302 39.4072 145.417C39.416 145.549 39.3742 145.733 39.4169 145.854C39.4237 145.722 39.4306 145.59 39.4375 145.458C39.4256 145.561 39.4104 145.664 39.3918 145.766C39.3598 145.944 39.3184 146.12 39.2692 146.295C39.1404 146.751 38.9674 147.215 38.7357 147.629C38.3153 148.38 37.5989 148.971 36.826 149.333C36.2365 149.609 35.3443 149.88 34.7715 149.419C34.4919 149.194 34.3364 148.834 34.2666 148.49C34.2465 148.391 34.2539 148.274 34.2272 148.179C34.3553 148.634 34.1363 148.784 34.2403 148.443C34.3049 148.232 34.4174 148.036 34.5911 147.896C35.2169 147.392 36.303 147.648 36.8413 148.166C37.1589 148.472 37.3336 148.898 37.4049 149.327C37.4172 149.401 37.4262 149.477 37.433 149.552C37.4359 149.59 37.4385 149.629 37.4411 149.667C37.4429 150.006 37.4508 149.956 37.4647 149.518C37.3767 149.81 37.3582 150.127 37.2673 150.423C36.9962 151.305 36.5276 152.092 35.7416 152.606C33.5983 154.008 31.0253 152.992 28.9618 151.986C29.0559 152.032 28.8037 152.801 28.9086 152.853C31.0656 153.904 33.9508 155.001 36.0541 153.199C36.856 152.512 37.2702 151.439 37.4076 150.412C37.5257 149.531 37.6522 148.427 37.1621 147.636C36.684 146.864 35.2468 146.365 34.5418 147.127C34.2591 147.432 34.2328 147.845 34.2069 148.238C34.1772 148.681 34.1308 149.126 34.2647 149.558C34.5685 150.538 35.4552 150.664 36.3306 150.376C37.3151 150.053 38.2542 149.327 38.7344 148.399C39.2447 147.413 39.4039 146.378 39.4593 145.285C39.5298 143.894 39.0719 142.632 38.3864 141.437C38.5047 141.644 38.2107 142.091 38.3329 142.304Z" fill="#FFD600"/>
<path d="M90.6981 240.962C89.1833 239.434 86.9036 238.77 84.8053 239.246C84.7811 239.251 84.5848 238.811 84.5652 238.772C84.5467 238.734 84.3513 238.289 84.3347 238.293C86.4329 237.817 88.7127 238.481 90.2275 240.009C90.3347 240.117 90.4002 240.347 90.4676 240.483C90.523 240.596 90.5785 240.708 90.6327 240.821C90.6509 240.859 90.6696 240.933 90.6981 240.962Z" fill="#C9A923"/>
<path d="M191.396 241.131C193.479 241.67 195.778 241.076 197.338 239.595C197.356 239.578 197.75 239.855 197.787 239.879C197.822 239.902 198.218 240.185 198.23 240.173C196.67 241.654 194.371 242.249 192.288 241.709C192.14 241.671 191.967 241.507 191.839 241.425C191.734 241.356 191.629 241.288 191.525 241.219C191.489 241.195 191.436 241.141 191.396 241.131Z" fill="#FFD600"/>
<path d="M51.1055 245.106C53.1457 245.789 55.4803 245.356 57.1403 243.988C57.1595 243.972 57.5327 244.277 57.5681 244.303C57.6015 244.328 57.9764 244.638 57.9894 244.627C56.3294 245.996 53.9946 246.429 51.9545 245.746C51.81 245.697 51.6481 245.522 51.5268 245.43C51.4266 245.355 51.3267 245.28 51.2275 245.203C51.1939 245.177 51.1439 245.119 51.1055 245.106Z" fill="#FFD600"/>
<path d="M145.898 118.095C145.164 120.117 145.537 122.462 146.863 124.156C146.879 124.176 146.565 124.541 146.537 124.576C146.511 124.609 146.192 124.976 146.202 124.989C144.876 123.295 144.503 120.95 145.238 118.928C145.29 118.784 145.469 118.627 145.564 118.508C145.642 118.41 145.72 118.312 145.799 118.215C145.825 118.182 145.885 118.133 145.898 118.095Z" fill="#FFD600"/>
</g>
<defs>
<clipPath id="clip0_30_254">
<rect width="216" height="252" fill="white"/>
</clipPath>
</defs>
</svg>
