<svg width="24" height="24" viewBox="0 0 24 24" fill="none" xmlns="http://www.w3.org/2000/svg">
<g clip-path="url(#clip0_296_303)">
<path d="M7.27262 7.89287H16.7272M7.27262 12.6389H14.3635M19.0908 1.96033C20.0311 1.96033 20.9329 2.33535 21.5978 3.00289C22.2627 3.67043 22.6363 4.57581 22.6363 5.51985V15.0119C22.6363 15.956 22.2627 16.8613 21.5978 17.5289C20.9329 18.1964 20.0311 18.5714 19.0908 18.5714H13.1817L7.27262 22.131V18.5714H4.90898C3.96867 18.5714 3.06687 18.1964 2.40197 17.5289C1.73706 16.8613 1.36353 15.956 1.36353 15.0119V5.51985C1.36353 4.57581 1.73706 3.67043 2.40197 3.00289C3.06687 2.33535 3.96867 1.96033 4.90898 1.96033H19.0908Z" stroke="black" stroke-width="2" stroke-linecap="round" stroke-linejoin="round"/>
</g>
<defs>
<clipPath id="clip0_296_303">
<rect width="24" height="23" fill="white" transform="translate(0 0.5)"/>
</clipPath>
</defs>
</svg>
