<svg width="9" height="9" viewBox="0 0 9 9" fill="none" xmlns="http://www.w3.org/2000/svg">
<path d="M4.05 4.8375L1.29375 7.59375C1.19062 7.69688 1.05938 7.74844 0.9 7.74844C0.740625 7.74844 0.609375 7.69688 0.50625 7.59375C0.403125 7.49063 0.351562 7.35938 0.351562 7.2C0.351562 7.04063 0.403125 6.90938 0.50625 6.80625L3.2625 4.05L0.50625 1.29375C0.403125 1.19062 0.351562 1.05938 0.351562 0.9C0.351562 0.740625 0.403125 0.609375 0.50625 0.50625C0.609375 0.403125 0.740625 0.351562 0.9 0.351562C1.05938 0.351562 1.19062 0.403125 1.29375 0.50625L4.05 3.2625L6.80625 0.50625C6.90938 0.403125 7.04063 0.351562 7.2 0.351562C7.35938 0.351562 7.49063 0.403125 7.59375 0.50625C7.69688 0.609375 7.74844 0.740625 7.74844 0.9C7.74844 1.05938 7.69688 1.19062 7.59375 1.29375L4.8375 4.05L7.59375 6.80625C7.69688 6.90938 7.74844 7.04063 7.74844 7.2C7.74844 7.35938 7.69688 7.49063 7.59375 7.59375C7.49063 7.69688 7.35938 7.74844 7.2 7.74844C7.04063 7.74844 6.90938 7.69688 6.80625 7.59375L4.05 4.8375Z" fill="white"/>
</svg>
