<svg width="24" height="24" viewBox="0 0 24 24" fill="none" xmlns="http://www.w3.org/2000/svg">
<path d="M16 13.3999V16.3999C16 21 15.5 21.9999 11.0001 21.9999H9C4.5 21.9999 4 21 4 16.3999V12.5999C4 8 4.5 6.99985 9 6.99985H10.6M11.0001 6.99985C15.5 6.99985 16.0001 8.5 16.0001 12.9999M14.0002 2C19 2 20.0001 3 20.0001 8" stroke="black" stroke-linecap="round" stroke-linejoin="round"/>
<path d="M11.6001 2L14.0001 2" stroke="black" stroke-linecap="round" stroke-linejoin="round"/>
<path d="M8 5C8 3.34 8.84 2 10.5 2H13.62" stroke="black" stroke-linecap="round" stroke-linejoin="round"/>
<path d="M20.0004 8V14.19C20.0004 15.74 18.7404 17 17.1904 17" stroke="black" stroke-linecap="round" stroke-linejoin="round"/>
</svg>
