<svg width="30" height="30" viewBox="0 0 30 30" fill="none" xmlns="http://www.w3.org/2000/svg">
<g clip-path="url(#clip0_142_819)">
<path fill-rule="evenodd" clip-rule="evenodd" d="M29.1828 5.12399C29.3253 5.3403 29.3888 5.59916 29.3626 5.85687C29.3364 6.11458 29.222 6.35533 29.0388 6.53849L15.2493 20.3265C15.1083 20.4675 14.9323 20.5684 14.7393 20.619L8.99583 22.119C8.80597 22.1685 8.60647 22.1675 8.41712 22.1161C8.22777 22.0647 8.05516 21.9646 7.91642 21.8259C7.77768 21.6872 7.67764 21.5145 7.62623 21.3252C7.57481 21.1358 7.57381 20.9363 7.62333 20.7465L9.12333 15.0045C9.16818 14.8325 9.25067 14.6727 9.36483 14.5365L23.2053 0.704987C23.4163 0.494311 23.7022 0.375977 24.0003 0.375977C24.2985 0.375977 24.5844 0.494311 24.7953 0.704987L29.0388 4.94699C29.0913 5.00224 29.1394 5.06142 29.1828 5.12399ZM26.6523 5.74199L24.0003 3.09149L11.2233 15.8685L10.2858 19.458L13.8753 18.5205L26.6523 5.74199Z" fill="#455A64"/>
<path d="M26.4615 22.74C26.8715 19.2359 27.0024 15.7048 26.853 12.18C26.8495 12.0969 26.8633 12.014 26.8935 11.9366C26.9237 11.8591 26.9697 11.7887 27.0285 11.73L28.5045 10.254C28.5449 10.2134 28.596 10.1854 28.6519 10.1732C28.7078 10.161 28.766 10.1653 28.8196 10.1854C28.8731 10.2055 28.9197 10.2407 28.9538 10.2866C28.9878 10.3326 29.0079 10.3874 29.0115 10.4445C29.2886 14.6314 29.1831 18.8348 28.6965 23.0025C28.3425 26.0355 25.9065 28.413 22.887 28.7505C17.645 29.3306 12.355 29.3306 7.11302 28.7505C4.09502 28.413 1.65752 26.0355 1.30352 23.0025C0.682681 17.6856 0.682681 12.3144 1.30352 6.99749C1.65752 3.96449 4.09352 1.58699 7.11302 1.24949C11.0917 0.810065 15.1001 0.703194 19.0965 0.929993C19.1537 0.9341 19.2085 0.954511 19.2545 0.988811C19.3004 1.02311 19.3356 1.06986 19.3558 1.12352C19.376 1.17719 19.3804 1.23552 19.3685 1.29161C19.3566 1.34769 19.3288 1.39919 19.2885 1.43999L17.799 2.92799C17.7408 2.98626 17.6712 3.03192 17.5945 3.06211C17.5179 3.0923 17.4358 3.10639 17.3535 3.10349C14.0187 2.98927 10.6799 3.1171 7.36352 3.48599C6.39443 3.59325 5.4898 4.02408 4.79575 4.70887C4.10171 5.39366 3.65878 6.29243 3.53852 7.25999C2.93681 12.4025 2.93681 17.5975 3.53852 22.74C3.65878 23.7076 4.10171 24.6063 4.79575 25.2911C5.4898 25.9759 6.39443 26.4067 7.36352 26.514C12.396 27.0765 17.604 27.0765 22.638 26.514C23.6071 26.4067 24.5117 25.9759 25.2058 25.2911C25.8998 24.6063 26.3413 23.7076 26.4615 22.74Z" fill="#455A64"/>
</g>
<defs>
<clipPath id="clip0_142_819">
<rect width="30" height="30" fill="white"/>
</clipPath>
</defs>
</svg>
