<svg width="34" height="34" viewBox="0 0 34 34" fill="none" xmlns="http://www.w3.org/2000/svg">
<mask id="mask0_146_1078" style="mask-type:luminance" maskUnits="userSpaceOnUse" x="0" y="0" width="34" height="34">
<path d="M34 34L0 34L0 0L34 0L34 34Z" fill="white"/>
<path d="M14.7352 17.8369C14.6268 17.9735 14.4922 18.087 14.3393 18.1708C14.1864 18.2547 14.0183 18.307 13.8448 18.3249C13.6714 18.3428 13.4961 18.3258 13.3293 18.2749C13.1625 18.224 13.0076 18.1403 12.8737 18.0287C12.7397 17.9171 12.6294 17.7798 12.5493 17.6249C12.4692 17.47 12.4209 17.3007 12.4072 17.1269C12.3935 16.953 12.4147 16.7782 12.4695 16.6127C12.5244 16.4472 12.6118 16.2943 12.7266 16.1631L19.2651 8.31691C19.3735 8.18031 19.5081 8.06677 19.661 7.98297C19.8139 7.89916 19.982 7.84678 20.1555 7.82891C20.3289 7.81104 20.5042 7.82804 20.671 7.87891C20.8378 7.92978 20.9927 8.01349 21.1266 8.12512C21.2606 8.23675 21.3709 8.37405 21.451 8.52892C21.5311 8.6838 21.5794 8.85313 21.5931 9.02696C21.6068 9.2008 21.5856 9.37561 21.5308 9.54113C21.4759 9.70664 21.3885 9.85952 21.2737 9.99075L14.7352 17.8369Z" fill="black"/>
<path d="M21.2738 24.0091C21.486 24.2766 21.5852 24.6164 21.5502 24.956C21.5153 25.2955 21.3489 25.608 21.0866 25.8265C20.8243 26.0451 20.487 26.1524 20.1467 26.1256C19.8063 26.0988 19.49 25.9399 19.2652 25.683L12.7268 17.8368C12.6119 17.7056 12.5245 17.5527 12.4697 17.3872C12.4148 17.2217 12.3936 17.0469 12.4073 16.873C12.421 16.6992 12.4694 16.5299 12.5495 16.375C12.6296 16.2201 12.7399 16.0828 12.8738 15.9712C13.0078 15.8596 13.1627 15.7759 13.3295 15.725C13.4963 15.6741 13.6715 15.6571 13.845 15.675C14.0184 15.6929 14.1866 15.7452 14.3395 15.829C14.4924 15.9128 14.627 16.0264 14.7354 16.163L21.2738 24.0091Z" fill="black"/>
</mask>
<g mask="url(#mask0_146_1078)">
<path d="M17 0C7.61116 0 0 7.61116 0 17C0 26.3888 7.61116 34 17 34C26.3888 34 34 26.3888 34 17C34 7.61116 26.3888 0 17 0Z" fill="#B9C1E1"/>
</g>
</svg>
