<svg width="34" height="34" viewBox="0 0 34 34" fill="none" xmlns="http://www.w3.org/2000/svg">
<g clip-path="url(#clip0_146_1068)">
<mask id="mask0_146_1068" style="mask-type:luminance" maskUnits="userSpaceOnUse" x="0" y="0" width="34" height="34">
<path d="M0 0H34V34H0V0Z" fill="white"/>
<path d="M19.2653 16.1631C19.3736 16.0265 19.5082 15.913 19.6612 15.8292C19.8141 15.7453 19.9822 15.693 20.1556 15.6751C20.3291 15.6572 20.5044 15.6742 20.6712 15.7251C20.8379 15.776 20.9929 15.8597 21.1268 15.9713C21.2608 16.0829 21.3711 16.2202 21.4512 16.3751C21.5313 16.53 21.5796 16.6993 21.5933 16.8731C21.607 17.047 21.5858 17.2218 21.5309 17.3873C21.4761 17.5528 21.3887 17.7057 21.2739 17.8369L14.7354 25.6831C14.627 25.8197 14.4924 25.9332 14.3395 26.017C14.1866 26.1008 14.0185 26.1532 13.845 26.1711C13.6716 26.189 13.4963 26.172 13.3295 26.1211C13.1627 26.0702 13.0078 25.9865 12.8738 25.8749C12.7399 25.7632 12.6296 25.626 12.5495 25.4711C12.4694 25.3162 12.4211 25.1469 12.4074 24.973C12.3937 24.7992 12.4149 24.6244 12.4697 24.4589C12.5246 24.2934 12.612 24.1405 12.7268 24.0092L19.2653 16.1631Z" fill="black"/>
<path d="M12.7267 9.99087C12.5145 9.72344 12.4153 9.38363 12.4502 9.04404C12.4852 8.70445 12.6516 8.39201 12.9139 8.17346C13.1762 7.95491 13.5135 7.84758 13.8538 7.87441C14.1941 7.90123 14.5105 8.06008 14.7353 8.31702L21.2737 16.1632C21.3885 16.2944 21.4759 16.4473 21.5308 16.6128C21.5857 16.7783 21.6069 16.9531 21.5932 17.127C21.5795 17.3008 21.5311 17.4701 21.451 17.625C21.3709 17.7799 21.2606 17.9172 21.1267 18.0288C20.9927 18.1404 20.8378 18.2241 20.671 18.275C20.5042 18.3259 20.329 18.3429 20.1555 18.325C19.9821 18.3071 19.8139 18.2548 19.661 18.171C19.5081 18.0872 19.3735 17.9736 19.2651 17.837L12.7267 9.99087Z" fill="black"/>
</mask>
<g mask="url(#mask0_146_1068)">
<path d="M17 34C26.3888 34 34 26.3888 34 17C34 7.61116 26.3888 0 17 0C7.61116 0 0 7.61116 0 17C0 26.3888 7.61116 34 17 34Z" fill="#B9C1E1"/>
</g>
</g>
<defs>
<clipPath id="clip0_146_1068">
<rect width="34" height="34" fill="white"/>
</clipPath>
</defs>
</svg>
