<svg width="44" height="44" viewBox="0 0 44 44" fill="none" xmlns="http://www.w3.org/2000/svg">
<path d="M43.0137 32.7602L43.023 32.7553H43.0049L32.354 27.2037L21.6855 21.6423L11.0166 27.2037L0.365781 32.7553H0.347656L0.356929 32.7602L0.347656 32.7651H0.365781L11.0166 38.3167L21.6855 43.878L32.354 38.3167L43.0049 32.7651H43.023L43.0137 32.7602Z" fill="#DCD8FF"/>
<path d="M43.0137 11.4376L43.023 11.4331H43.0049L32.354 5.88107L21.6855 0.319702L11.0166 5.88107L0.365781 11.4331H0.347656L0.356929 11.4376L0.347656 11.4424H0.365781L11.0166 16.9944L21.6855 22.5558L32.354 16.9944L43.0049 11.4424H43.023L43.0137 11.4376Z" fill="#515DEF"/>
<path d="M0.365234 10.9857V33.2121L21.685 22.0991L0.365234 10.9857Z" fill="#B8B1FF"/>
<path d="M43.0039 10.9857V33.2121L21.6846 22.0991L43.0039 10.9857Z" fill="#B8B1FF"/>
</svg>
