<svg width="24" height="24" viewBox="0 0 24 24" fill="none" xmlns="http://www.w3.org/2000/svg">
<g clip-path="url(#clip0_146_1014)">
<rect x="0.5" y="0.5" width="23" height="23" rx="3.5" stroke="#7A7A9D"/>
<path d="M14.707 7.30529C14.6148 7.20978 14.5044 7.1336 14.3824 7.08119C14.2604 7.02878 14.1292 7.00119 13.9964 7.00004C13.8636 6.99888 13.7319 7.02419 13.609 7.07447C13.4861 7.12475 13.3745 7.199 13.2806 7.29289C13.1867 7.38679 13.1125 7.49844 13.0622 7.62133C13.0119 7.74423 12.9866 7.87591 12.9877 8.00869C12.9889 8.14147 13.0165 8.27269 13.0689 8.39469C13.1213 8.5167 13.1975 8.62704 13.293 8.71929L15.586 11.0123H6C5.73478 11.0123 5.48043 11.1176 5.29289 11.3052C5.10536 11.4927 5 11.7471 5 12.0123C5 12.2775 5.10536 12.5319 5.29289 12.7194C5.48043 12.9069 5.73478 13.0123 6 13.0123H15.586L13.293 15.3053C13.1108 15.4939 13.01 15.7465 13.0123 16.0087C13.0146 16.2709 13.1198 16.5217 13.3052 16.7071C13.4906 16.8925 13.7414 16.9977 14.0036 17C14.2658 17.0022 14.5184 16.9014 14.707 16.7193L18.707 12.7193C18.8945 12.5318 18.9998 12.2775 18.9998 12.0123C18.9998 11.7471 18.8945 11.4928 18.707 11.3053L14.707 7.30529Z" fill="#7A7A9D"/>
</g>
<defs>
<clipPath id="clip0_146_1014">
<rect width="24" height="24" fill="white"/>
</clipPath>
</defs>
</svg>
