<svg width="37" height="39" viewBox="0 0 37 39" fill="none" xmlns="http://www.w3.org/2000/svg">
<path d="M18.5001 19.5001V33.7501M18.5001 19.5001L14.6459 22.6667M18.5001 19.5001L22.3543 22.6667M7.76086 14.9353C6.30277 15.3121 5.02884 16.2228 4.17842 17.4963C3.328 18.7697 2.95962 20.3182 3.1425 21.851C3.32538 23.3837 4.04693 24.7951 5.17158 25.8199C6.29623 26.8448 7.74657 27.4126 9.25011 27.4167H10.7918" stroke="#191D23" stroke-width="2" stroke-linecap="round" stroke-linejoin="round"/>
<path d="M24.4044 11.8018C23.8774 9.65891 22.5768 7.80193 20.7662 6.60733C18.9556 5.41273 16.7704 4.96989 14.6537 5.3686C12.537 5.7673 10.647 6.97771 9.36704 8.75445C8.08703 10.5312 7.51272 12.7413 7.76053 14.9368C7.76053 14.9368 7.9964 16.3333 8.47895 17.125" stroke="#191D23" stroke-width="2" stroke-linecap="round" stroke-linejoin="round"/>
<path d="M26.2087 27.4167C27.2971 27.4159 28.3731 27.1784 29.3658 26.7198C30.3584 26.2612 31.2453 25.5919 31.9679 24.7559C32.6905 23.9199 33.2326 22.9362 33.5584 21.8695C33.8842 20.8029 33.9863 19.6775 33.8581 18.5674C33.7298 17.4573 33.3741 16.3876 32.8144 15.4289C32.2546 14.4701 31.5035 13.644 30.6105 13.0049C29.7174 12.3657 28.7027 11.9281 27.6332 11.7207C26.5636 11.5134 25.4633 11.541 24.4049 11.8019L22.3545 12.375" stroke="#191D23" stroke-width="2" stroke-linecap="round" stroke-linejoin="round"/>
</svg>
