<svg width="26" height="26" viewBox="0 0 26 26" fill="none" xmlns="http://www.w3.org/2000/svg">
<g clip-path="url(#clip0_139_791)">
<path fill-rule="evenodd" clip-rule="evenodd" d="M12.9999 0.963013C12.0478 0.963013 11.1342 1.34098 10.4601 2.01505L9.38519 3.08996C9.16179 3.31029 8.86118 3.43468 8.54741 3.43662H7.02954C6.55765 3.43647 6.09035 3.5293 5.65435 3.70981C5.21835 3.89032 4.82219 4.15498 4.48851 4.48865C4.15484 4.82233 3.89018 5.21849 3.70967 5.65449C3.52916 6.09049 3.43633 6.55779 3.43649 7.02968V8.54875C3.43454 8.86252 3.31015 9.16313 3.08982 9.38653L2.01491 10.4614C1.34131 11.135 0.962891 12.0486 0.962891 13.0013C0.962891 13.9539 1.34131 14.8675 2.01491 15.5411L3.08982 16.616C3.31015 16.8394 3.43454 17.14 3.43649 17.4538V18.9728C3.43649 19.9254 3.81491 20.8391 4.48851 21.5127C5.16212 22.1863 6.07572 22.5647 7.02834 22.5647H8.54741C8.86158 22.5647 9.16371 22.6899 9.38519 22.9113L10.4601 23.9863C11.1337 24.6599 12.0473 25.0383 12.9999 25.0383C13.9525 25.0383 14.8661 24.6599 15.5397 23.9863L16.6146 22.9113C16.838 22.691 17.1386 22.5666 17.4524 22.5647H18.9715C19.9241 22.5647 20.8377 22.1863 21.5113 21.5127C22.1849 20.8391 22.5633 19.9254 22.5633 18.9728V17.4538C22.5633 17.1396 22.6885 16.8375 22.91 16.616L23.9849 15.5411C24.6585 14.8675 25.0369 13.9539 25.0369 13.0013C25.0369 12.0486 24.6585 11.135 23.9849 10.4614L22.91 9.38653C22.6897 9.16313 22.5653 8.86252 22.5633 8.54875V7.02968C22.5633 6.07706 22.1849 5.16346 21.5113 4.48986C20.8377 3.81625 19.9241 3.43783 18.9715 3.43783H17.4524C17.1386 3.43588 16.838 3.31149 16.6146 3.09116L15.5397 2.01625C15.2064 1.68229 14.8106 1.41735 14.3747 1.23662C13.9389 1.05589 13.4717 0.962911 12.9999 0.963013ZM17.4331 10.2676C17.5507 10.1572 17.6449 10.0243 17.7101 9.87679C17.7753 9.72927 17.8102 9.57015 17.8127 9.40888C17.8152 9.24761 17.7853 9.08748 17.7247 8.938C17.6641 8.78852 17.5741 8.65275 17.46 8.53874C17.3459 8.42473 17.2101 8.33481 17.0606 8.27432C16.911 8.21384 16.7509 8.18402 16.5896 8.18664C16.4283 8.18926 16.2692 8.22426 16.1218 8.28957C15.9743 8.35488 15.8414 8.44916 15.7311 8.56681L10.6118 13.6862L9.07463 12.149C8.84893 11.9232 8.54274 11.7962 8.22344 11.7961C7.90413 11.796 7.59786 11.9227 7.37199 12.1484C7.14613 12.3741 7.01918 12.6803 7.01907 12.9996C7.01895 13.3189 7.14569 13.6252 7.37139 13.8511L9.76074 16.2392C9.98647 16.4649 10.2926 16.5916 10.6118 16.5916C10.9309 16.5916 11.2371 16.4649 11.4628 16.2392L17.4331 10.2688V10.2676Z" fill="#6956E5"/>
</g>
<defs>
<clipPath id="clip0_139_791">
<rect width="26" height="26" fill="white"/>
</clipPath>
</defs>
</svg>
